<?xml version="1.0" encoding="UTF-8" standalone="no"?>
<svg
   version="1.1"
   width="861.34283"
   height="648.67938"
   viewBox="0 0 861.34285 648.67936"
   xml:space="preserve"
   id="svg2947"
   sodipodi:docname="landingBG.svg"
   inkscape:export-filename="landingBG.png"
   inkscape:export-xdpi="96"
   inkscape:export-ydpi="96"
   xmlns:inkscape="http://www.inkscape.org/namespaces/inkscape"
   xmlns:sodipodi="http://sodipodi.sourceforge.net/DTD/sodipodi-0.dtd"
   xmlns="http://www.w3.org/2000/svg"
   xmlns:svg="http://www.w3.org/2000/svg"><sodipodi:namedview
   id="namedview2949"
   pagecolor="#505050"
   bordercolor="#ffffff"
   borderopacity="1"
   inkscape:showpageshadow="0"
   inkscape:pageopacity="0"
   inkscape:pagecheckerboard="1"
   inkscape:deskcolor="#505050"
   showgrid="false" />
<desc
   id="desc2730">Created with Fabric.js 4.6.0</desc>
<defs
   id="defs2732" />
<g
   transform="matrix(1.3861576,0,0,1.06,432.74687,270.01)"
   id="ZIDO1Luypp2qOE59gCbOn">
<path
   style="opacity:1;fill:#262626;fill-rule:nonzero;stroke:none;stroke-width:1;stroke-linecap:butt;stroke-linejoin:miter;stroke-miterlimit:4;stroke-dasharray:none;stroke-dashoffset:0"
   vector-effect="non-scaling-stroke"
   d="M -310.74884,253.9962 V -253.9962 H 310.74884 V 253.9962 Z"
   stroke-linecap="round"
   id="path2734" />
</g>
<g
   transform="matrix(1.4897391,0,0,1.27,212.50402,445.04)"
   id="V4VgJFfNO4khhZA-fT7Kv">
<path
   style="opacity:1;fill:#008bff;fill-rule:nonzero;stroke:none;stroke-width:1;stroke-linecap:butt;stroke-linejoin:miter;stroke-miterlimit:4;stroke-dasharray:none;stroke-dashoffset:0"
   vector-effect="non-scaling-stroke"
   transform="translate(-13.31,-1.84)"
   d="M 0,3.68815 V 0 h 26.61292 v 3.68815 z"
   stroke-linecap="round"
   id="path2737" />
</g>
<g
   transform="matrix(2.3595867,0,0,1.48,95.764469,445.1)"
   id="6jGFGPRkw9oYKHhOoNbfC">
<path
   style="opacity:1;fill:#808080;fill-rule:nonzero;stroke:none;stroke-width:1;stroke-linecap:butt;stroke-linejoin:miter;stroke-miterlimit:4;stroke-dasharray:none;stroke-dashoffset:0"
   vector-effect="non-scaling-stroke"
   transform="translate(-37.82,-1.54)"
   d="M 0,3.08721 V 0 h 75.63704 v 3.08721 z"
   stroke-linecap="round"
   id="path2740" />
</g>
<g
   transform="matrix(5.7389948,0,0,1.27,175.44052,295.69)"
   id="EvJLyI-U0IF2XncDAYbPu">
<path
   style="opacity:1;fill:#808080;fill-rule:nonzero;stroke:none;stroke-width:1;stroke-linecap:butt;stroke-linejoin:miter;stroke-miterlimit:4;stroke-dasharray:none;stroke-dashoffset:0"
   vector-effect="non-scaling-stroke"
   transform="translate(-13.31,-1.84)"
   d="M 0,3.68815 V 0 h 26.61292 v 3.68815 z"
   stroke-linecap="round"
   id="path2743" />
</g>
<g
   transform="matrix(5.4290491,0,0,1.27,331.13325,295.69)"
   id="l4BNWWQF8O4dUq4WTrnoi">
<path
   style="opacity:1;fill:#808080;fill-rule:nonzero;stroke:none;stroke-width:1;stroke-linecap:butt;stroke-linejoin:miter;stroke-miterlimit:4;stroke-dasharray:none;stroke-dashoffset:0"
   vector-effect="non-scaling-stroke"
   transform="translate(-13.31,-1.84)"
   d="M 0,3.68815 V 0 h 26.61292 v 3.68815 z"
   stroke-linecap="round"
   id="path2746" />
</g>
<g
   transform="matrix(0.4099282,0,0,1.48,229.99096,239.86)"
   id="Z1PEyp_rp9R57VpIANegL">
<path
   style="opacity:1;fill:#808080;fill-rule:nonzero;stroke:none;stroke-width:1;stroke-linecap:butt;stroke-linejoin:miter;stroke-miterlimit:4;stroke-dasharray:none;stroke-dashoffset:0"
   vector-effect="non-scaling-stroke"
   transform="translate(-54.41,-1.54)"
   d="M 0,3.08721 V 0 h 108.82474 v 3.08721 z"
   stroke-linecap="round"
   id="path2749" />
</g>
<g
   transform="matrix(0.57989843,0,0,1.48,290.96028,239.86)"
   id="H5lQcQOPXCBpIqkzOaxhS">
<path
   style="opacity:1;fill:#f79808;fill-rule:nonzero;stroke:none;stroke-width:1;stroke-linecap:butt;stroke-linejoin:miter;stroke-miterlimit:4;stroke-dasharray:none;stroke-dashoffset:0"
   vector-effect="non-scaling-stroke"
   transform="translate(-54.41,-1.54)"
   d="M 0,3.08721 V 0 h 108.82474 v 3.08721 z"
   stroke-linecap="round"
   id="path2752" />
</g>
<g
   transform="matrix(3.5693748,0,0,1.48,133.62784,250.27)"
   id="jJrlJD9iym9TJLwT3DlrK">
<path
   style="opacity:1;fill:#808080;fill-rule:nonzero;stroke:none;stroke-width:1;stroke-linecap:butt;stroke-linejoin:miter;stroke-miterlimit:4;stroke-dasharray:none;stroke-dashoffset:0"
   vector-effect="non-scaling-stroke"
   transform="translate(-18.52,-1.54)"
   d="M 0,3.08721 V 0 h 37.0467 v 3.08721 z"
   stroke-linecap="round"
   id="path2755" />
</g>
<g
   transform="matrix(3.0594641,0,0,1.27,43.713586,219.27)"
   id="xOate3WwEpszpxGsizutP">
<path
   style="opacity:1;fill:#808080;fill-rule:nonzero;stroke:none;stroke-width:1;stroke-linecap:butt;stroke-linejoin:miter;stroke-miterlimit:4;stroke-dasharray:none;stroke-dashoffset:0"
   vector-effect="non-scaling-stroke"
   transform="translate(-13.31,-1.84)"
   d="M 0,3.68815 V 0 h 26.61292 v 3.68815 z"
   stroke-linecap="round"
   id="path2758" />
</g>
<g
   transform="matrix(1.8596743,0,0,1.48,303.69805,219.21)"
   id="YN1oM9fZIkjhbyUSXBMPd">
<path
   style="opacity:1;fill:#808080;fill-rule:nonzero;stroke:none;stroke-width:1;stroke-linecap:butt;stroke-linejoin:miter;stroke-miterlimit:4;stroke-dasharray:none;stroke-dashoffset:0"
   vector-effect="non-scaling-stroke"
   transform="translate(-37.82,-1.54)"
   d="M 0,3.08721 V 0 h 75.63704 v 3.08721 z"
   stroke-linecap="round"
   id="path2761" />
</g>
<g
   transform="matrix(3.1294519,0,0,1.46,325.7042,229.55)"
   id="E0G78nGGtyFf2KM-jn7OZ">
<path
   style="opacity:1;fill:#808080;fill-rule:nonzero;stroke:none;stroke-width:1;stroke-linecap:butt;stroke-linejoin:miter;stroke-miterlimit:4;stroke-dasharray:none;stroke-dashoffset:0"
   vector-effect="non-scaling-stroke"
   transform="translate(-18.52,-1.54)"
   d="M 0,3.08721 V 0 h 37.0467 v 3.08721 z"
   stroke-linecap="round"
   id="path2764" />
</g>
<g
   transform="matrix(1.76969,0,0,1.46,370.52635,208.43)"
   id="Mb827kk4A_HCVxzGUOjjA">
<path
   style="opacity:1;fill:#808080;fill-rule:nonzero;stroke:none;stroke-width:1;stroke-linecap:butt;stroke-linejoin:miter;stroke-miterlimit:4;stroke-dasharray:none;stroke-dashoffset:0"
   vector-effect="non-scaling-stroke"
   transform="translate(-37.82,-1.54)"
   d="M 0,3.08721 V 0 h 75.63704 v 3.08721 z"
   stroke-linecap="round"
   id="path2767" />
</g>
<g
   transform="matrix(5.5390298,0,0,1.27,95.004602,284.85)"
   id="eZSegcddbLg0HGTi9PEwg">
<path
   style="opacity:1;fill:#808080;fill-rule:nonzero;stroke:none;stroke-width:1;stroke-linecap:butt;stroke-linejoin:miter;stroke-miterlimit:4;stroke-dasharray:none;stroke-dashoffset:0"
   vector-effect="non-scaling-stroke"
   transform="translate(-13.31,-1.84)"
   d="M 0,3.68815 V 0 h 26.61292 v 3.68815 z"
   stroke-linecap="round"
   id="path2770" />
</g>
<g
   transform="matrix(4.3692347,0,0,1.27,79.547309,274.3)"
   id="W6BYxB5ZpqCJdw7FNZhw0">
<path
   style="opacity:1;fill:#808080;fill-rule:nonzero;stroke:none;stroke-width:1;stroke-linecap:butt;stroke-linejoin:miter;stroke-miterlimit:4;stroke-dasharray:none;stroke-dashoffset:0"
   vector-effect="non-scaling-stroke"
   transform="translate(-13.31,-1.84)"
   d="M 0,3.68815 V 0 h 26.61292 v 3.68815 z"
   stroke-linecap="round"
   id="path2773" />
</g>
<g
   transform="matrix(1.4997373,0,0,1.48,59.740778,131.79)"
   id="Nszu06mPJ3knqJz3BDK7z">
<path
   style="opacity:1;fill:#808080;fill-rule:nonzero;stroke:none;stroke-width:1;stroke-linecap:butt;stroke-linejoin:miter;stroke-miterlimit:4;stroke-dasharray:none;stroke-dashoffset:0"
   vector-effect="non-scaling-stroke"
   transform="translate(-37.82,-1.54)"
   d="M 0,3.08721 V 0 h 75.63704 v 3.08721 z"
   stroke-linecap="round"
   id="path2776" />
</g>
<g
   transform="matrix(5.3090701,0,0,1.48,101.38348,239.86)"
   id="JMSWctED9w8V1tuRYLAn4">
<path
   style="opacity:1;fill:#808080;fill-rule:nonzero;stroke:none;stroke-width:1;stroke-linecap:butt;stroke-linejoin:miter;stroke-miterlimit:4;stroke-dasharray:none;stroke-dashoffset:0"
   vector-effect="non-scaling-stroke"
   transform="translate(-18.52,-1.54)"
   d="M 0,3.08721 V 0 h 37.0467 v 3.08721 z"
   stroke-linecap="round"
   id="path2779" />
</g>
<g
   transform="matrix(1.7896865,0,0,1.48,200.24617,142.47)"
   id="dRG7TGknz-XqLfpM5Z01v">
<path
   style="opacity:1;fill:#808080;fill-rule:nonzero;stroke:none;stroke-width:1;stroke-linecap:butt;stroke-linejoin:miter;stroke-miterlimit:4;stroke-dasharray:none;stroke-dashoffset:0"
   vector-effect="non-scaling-stroke"
   d="M -18.52335,1.54361 V -1.5436 h 37.0467 v 3.08721 z"
   stroke-linecap="round"
   id="path2782" />
</g>
<g
   transform="matrix(1.3397653,0,0,1.48,85.496267,142.48)"
   id="EVfmywh8j_m0xiqVwf3lx">
<path
   style="opacity:1;fill:#808080;fill-rule:nonzero;stroke:none;stroke-width:1;stroke-linecap:butt;stroke-linejoin:miter;stroke-miterlimit:4;stroke-dasharray:none;stroke-dashoffset:0"
   vector-effect="non-scaling-stroke"
   transform="translate(-54.41,-1.54)"
   d="M 0,3.08721 V 0 h 108.82474 v 3.08721 z"
   stroke-linecap="round"
   id="path2785" />
</g>
<g
   transform="matrix(0.63988792,0,0,1.48,225.38177,153.77)"
   id="lgGDGH-UNwUMvudAkiKi4">
<path
   style="opacity:1;fill:#808080;fill-rule:nonzero;stroke:none;stroke-width:1;stroke-linecap:butt;stroke-linejoin:miter;stroke-miterlimit:4;stroke-dasharray:none;stroke-dashoffset:0"
   vector-effect="non-scaling-stroke"
   transform="translate(-54.41,-1.54)"
   d="M 0,3.08721 V 0 h 108.82474 v 3.08721 z"
   stroke-linecap="round"
   id="path2788" />
</g>
<g
   transform="matrix(1.2697776,0,0,1.27,165.63223,153.83)"
   id="4_MlINnn1tNzRIiDIUQ3p">
<path
   style="opacity:1;fill:#808080;fill-rule:nonzero;stroke:none;stroke-width:1;stroke-linecap:butt;stroke-linejoin:miter;stroke-miterlimit:4;stroke-dasharray:none;stroke-dashoffset:0"
   vector-effect="non-scaling-stroke"
   transform="translate(-13.31,-1.84)"
   d="M 0,3.68815 V 0 h 26.61292 v 3.68815 z"
   stroke-linecap="round"
   id="path2791" />
</g>
<g
   transform="matrix(1.5697251,0,0,1.48,80.817087,153.77)"
   id="lFjGQNGciN153cOBXNmeM">
<path
   style="opacity:1;fill:#808080;fill-rule:nonzero;stroke:none;stroke-width:1;stroke-linecap:butt;stroke-linejoin:miter;stroke-miterlimit:4;stroke-dasharray:none;stroke-dashoffset:0"
   vector-effect="non-scaling-stroke"
   transform="translate(-37.82,-1.54)"
   d="M 0,3.08721 V 0 h 75.63704 v 3.08721 z"
   stroke-linecap="round"
   id="path2794" />
</g>
<g
   transform="matrix(2.2596042,0,0,1.48,191.5177,164.93)"
   id="8oM5kmCVtUczL-wGqPqLA">
<path
   style="opacity:1;fill:#808080;fill-rule:nonzero;stroke:none;stroke-width:1;stroke-linecap:butt;stroke-linejoin:miter;stroke-miterlimit:4;stroke-dasharray:none;stroke-dashoffset:0"
   vector-effect="non-scaling-stroke"
   transform="translate(-37.82,-1.54)"
   d="M 0,3.08721 V 0 h 75.63704 v 3.08721 z"
   stroke-linecap="round"
   id="path2797" />
</g>
<g
   transform="matrix(1.7796883,0,0,1.48,64.749901,164.93)"
   id="Av89fYMn3LpexHOKo6mGG">
<path
   style="opacity:1;fill:#808080;fill-rule:nonzero;stroke:none;stroke-width:1;stroke-linecap:butt;stroke-linejoin:miter;stroke-miterlimit:4;stroke-dasharray:none;stroke-dashoffset:0"
   vector-effect="non-scaling-stroke"
   transform="translate(-18.52,-1.54)"
   d="M 0,3.08721 V 0 h 37.0467 v 3.08721 z"
   stroke-linecap="round"
   id="path2800" />
</g>
<g
   transform="matrix(1.7097005,0,0,1.48,228.70119,176.04)"
   id="qyOUTbK2JoEy_z0_uRBdD">
<path
   style="opacity:1;fill:#808080;fill-rule:nonzero;stroke:none;stroke-width:1;stroke-linecap:butt;stroke-linejoin:miter;stroke-miterlimit:4;stroke-dasharray:none;stroke-dashoffset:0"
   vector-effect="non-scaling-stroke"
   d="M -18.52335,1.54361 V -1.5436 h 37.0467 v 3.08721 z"
   stroke-linecap="round"
   id="path2803" />
</g>
<g
   transform="matrix(1.5497286,0,0,1.48,105.60275,176.05)"
   id="qckDrmDEafvUbVm0o_3Q1">
<path
   style="opacity:1;fill:#808080;fill-rule:nonzero;stroke:none;stroke-width:1;stroke-linecap:butt;stroke-linejoin:miter;stroke-miterlimit:4;stroke-dasharray:none;stroke-dashoffset:0"
   vector-effect="non-scaling-stroke"
   transform="translate(-54.41,-1.54)"
   d="M 0,3.08721 V 0 h 108.82474 v 3.08721 z"
   stroke-linecap="round"
   id="path2806" />
</g>
<g
   transform="matrix(1.5497286,0,0,1.48,87.465922,187.12)"
   id="g65_OjXOyO8o5ux35L0F4">
<path
   style="opacity:1;fill:#808080;fill-rule:nonzero;stroke:none;stroke-width:1;stroke-linecap:butt;stroke-linejoin:miter;stroke-miterlimit:4;stroke-dasharray:none;stroke-dashoffset:0"
   vector-effect="non-scaling-stroke"
   transform="translate(-54.41,-1.54)"
   d="M 0,3.08721 V 0 h 108.82474 v 3.08721 z"
   stroke-linecap="round"
   id="path2809" />
</g>
<g
   transform="matrix(1.2997723,0,0,1.48,116.42085,219.2)"
   id="-aVVRqt7-1jgnYeJ9jxJk">
<path
   style="opacity:1;fill:#808080;fill-rule:nonzero;stroke:none;stroke-width:1;stroke-linecap:butt;stroke-linejoin:miter;stroke-miterlimit:4;stroke-dasharray:none;stroke-dashoffset:0"
   vector-effect="non-scaling-stroke"
   d="m -18.52335,1.5436 v -3.08721 h 37.0467 V 1.5436 Z"
   stroke-linecap="round"
   id="path2812" />
</g>
<g
   transform="matrix(0.51990893,0,0,1.48,31.215775,250.27)"
   id="07OaigQBBeqe2WUzJIznX">
<path
   style="opacity:1;fill:#808080;fill-rule:nonzero;stroke:none;stroke-width:1;stroke-linecap:butt;stroke-linejoin:miter;stroke-miterlimit:4;stroke-dasharray:none;stroke-dashoffset:0"
   vector-effect="non-scaling-stroke"
   transform="translate(-54.41,-1.54)"
   d="M 0,3.08721 V 0 h 108.82474 v 3.08721 z"
   stroke-linecap="round"
   id="path2815" />
</g>
<g
   transform="matrix(2.7695149,0,0,1.48,362.05783,250.27)"
   id="1vqicwbHM3LckVE5Gpl80">
<path
   style="opacity:1;fill:#808080;fill-rule:nonzero;stroke:none;stroke-width:1;stroke-linecap:butt;stroke-linejoin:miter;stroke-miterlimit:4;stroke-dasharray:none;stroke-dashoffset:0"
   vector-effect="non-scaling-stroke"
   transform="translate(-18.52,-1.54)"
   d="M 0,3.08721 V 0 h 37.0467 v 3.08721 z"
   stroke-linecap="round"
   id="path2818" />
</g>
<g
   transform="matrix(2.5495534,0,0,1.48,255.14656,250.27)"
   id="uPuZzB_oFcM-bSozci2Yx">
<path
   style="opacity:1;fill:#808080;fill-rule:nonzero;stroke:none;stroke-width:1;stroke-linecap:butt;stroke-linejoin:miter;stroke-miterlimit:4;stroke-dasharray:none;stroke-dashoffset:0"
   vector-effect="non-scaling-stroke"
   transform="translate(-18.52,-1.54)"
   d="M 0,3.08721 V 0 h 37.0467 v 3.08721 z"
   stroke-linecap="round"
   id="path2821" />
</g>
<g
   transform="matrix(0.85984939,0,0,1.48,376.77525,239.86)"
   id="dfoOKI8y4t1mkaQbmtZqc">
<path
   style="opacity:1;fill:#808080;fill-rule:nonzero;stroke:none;stroke-width:1;stroke-linecap:butt;stroke-linejoin:miter;stroke-miterlimit:4;stroke-dasharray:none;stroke-dashoffset:0"
   vector-effect="non-scaling-stroke"
   transform="translate(-54.41,-1.54)"
   d="M 0,3.08721 V 0 h 108.82474 v 3.08721 z"
   stroke-linecap="round"
   id="path2824" />
</g>
<g
   transform="matrix(1.6197163,0,0,1.46,421.76737,229.61)"
   id="XBFF4RJ0RtaLg2-1Qx2yr">
<path
   style="opacity:1;fill:#808080;fill-rule:nonzero;stroke:none;stroke-width:1;stroke-linecap:butt;stroke-linejoin:miter;stroke-miterlimit:4;stroke-dasharray:none;stroke-dashoffset:0"
   vector-effect="non-scaling-stroke"
   transform="translate(-18.52,-1.54)"
   d="M 0,3.08721 V 0 h 37.0467 v 3.08721 z"
   stroke-linecap="round"
   id="path2827" />
</g>
<g
   transform="matrix(1.4097531,0,0,1.48,136.10741,381.19)"
   id="rL8iuMFA8XVeqJYP21wR5">
<path
   style="opacity:1;fill:#808080;fill-rule:nonzero;stroke:none;stroke-width:1;stroke-linecap:butt;stroke-linejoin:miter;stroke-miterlimit:4;stroke-dasharray:none;stroke-dashoffset:0"
   vector-effect="non-scaling-stroke"
   transform="translate(-37.82,-1.54)"
   d="M 0,3.08721 V 0 h 75.63704 v 3.08721 z"
   stroke-linecap="round"
   id="path2830" />
</g>
<g
   transform="matrix(1.3897566,0,0,1.27,55.831463,381.13)"
   id="wMeZjU7uNoApP9YMxr-xe">
<path
   style="opacity:1;fill:#008bff;fill-rule:nonzero;stroke:none;stroke-width:1;stroke-linecap:butt;stroke-linejoin:miter;stroke-miterlimit:4;stroke-dasharray:none;stroke-dashoffset:0"
   vector-effect="non-scaling-stroke"
   transform="translate(-13.31,-1.84)"
   d="M 0,3.68815 V 0 h 26.61292 v 3.68815 z"
   stroke-linecap="round"
   id="path2833" />
</g>
<g
   transform="matrix(1.5497286,0,0,1.48,121.42998,370.29)"
   id="pbnDlDxw2VkgH_QuZcdjx">
<path
   style="opacity:1;fill:#808080;fill-rule:nonzero;stroke:none;stroke-width:1;stroke-linecap:butt;stroke-linejoin:miter;stroke-miterlimit:4;stroke-dasharray:none;stroke-dashoffset:0"
   vector-effect="non-scaling-stroke"
   transform="translate(-54.41,-1.54)"
   d="M 0,3.08721 V 0 h 108.82474 v 3.08721 z"
   stroke-linecap="round"
   id="path2836" />
</g>
<g
   transform="matrix(2.1596217,0,0,1.48,133.92779,358.48)"
   id="7ntMeEgtOPo2B_X87yxED">
<path
   style="opacity:1;fill:#808080;fill-rule:nonzero;stroke:none;stroke-width:1;stroke-linecap:butt;stroke-linejoin:miter;stroke-miterlimit:4;stroke-dasharray:none;stroke-dashoffset:0"
   vector-effect="non-scaling-stroke"
   transform="translate(-37.82,-1.54)"
   d="M 0,3.08721 V 0 h 75.63704 v 3.08721 z"
   stroke-linecap="round"
   id="path2839" />
</g>
<g
   transform="matrix(0.65988442,0,0,1.48,32.375572,358.47)"
   id="blQGr5CZxVBlwut2ttKiR">
<path
   style="opacity:1;fill:#f79808;fill-rule:nonzero;stroke:none;stroke-width:1;stroke-linecap:butt;stroke-linejoin:miter;stroke-miterlimit:4;stroke-dasharray:none;stroke-dashoffset:0"
   vector-effect="non-scaling-stroke"
   d="m -18.52335,1.5436 v -3.08721 h 37.0467 V 1.5436 Z"
   stroke-linecap="round"
   id="path2842" />
</g>
<g
   transform="matrix(1.6397128,0,0,1.48,109.2821,347.9)"
   id="WKW6sg1VpY6ddwsrNprpM">
<path
   style="opacity:1;fill:#808080;fill-rule:nonzero;stroke:none;stroke-width:1;stroke-linecap:butt;stroke-linejoin:miter;stroke-miterlimit:4;stroke-dasharray:none;stroke-dashoffset:0"
   vector-effect="non-scaling-stroke"
   transform="translate(-54.41,-1.54)"
   d="M 0,3.08721 V 0 h 108.82474 v 3.08721 z"
   stroke-linecap="round"
   id="path2845" />
</g>
<g
   transform="matrix(2.6695324,0,0,1.27,56.221395,295.8)"
   id="-SNj4A8t0OHZc_6GUpw5s">
<path
   style="opacity:1;fill:#808080;fill-rule:nonzero;stroke:none;stroke-width:1;stroke-linecap:butt;stroke-linejoin:miter;stroke-miterlimit:4;stroke-dasharray:none;stroke-dashoffset:0"
   vector-effect="non-scaling-stroke"
   transform="translate(-13.31,-1.84)"
   d="M 0,3.68815 V 0 h 26.61292 v 3.68815 z"
   stroke-linecap="round"
   id="path2848" />
</g>
<g
   transform="matrix(0.49991244,0,0,1.48,438.61442,295.74)"
   id="CwE5dBgnq1zCeyyQ8DxmU">
<path
   style="opacity:1;fill:#808080;fill-rule:nonzero;stroke:none;stroke-width:1;stroke-linecap:butt;stroke-linejoin:miter;stroke-miterlimit:4;stroke-dasharray:none;stroke-dashoffset:0"
   vector-effect="non-scaling-stroke"
   transform="translate(-54.41,-1.54)"
   d="M 0,3.08721 V 0 h 108.82474 v 3.08721 z"
   stroke-linecap="round"
   id="path2851" />
</g>
<g
   transform="matrix(1.4697426,0,0,1.48,124.05952,208.28)"
   id="YDbkkWJnsuKVVe-dTzhBO">
<path
   style="opacity:1;fill:#808080;fill-rule:nonzero;stroke:none;stroke-width:1;stroke-linecap:butt;stroke-linejoin:miter;stroke-miterlimit:4;stroke-dasharray:none;stroke-dashoffset:0"
   vector-effect="non-scaling-stroke"
   transform="translate(-54.41,-1.54)"
   d="M 0,3.08721 V 0 h 108.82474 v 3.08721 z"
   stroke-linecap="round"
   id="path2854" />
</g>
<g
   transform="matrix(0.70987566,0,0,1.48,186.69854,219.21)"
   id="XoDTbLr8C1rQwjX58mqVT">
<path
   style="opacity:1;fill:#808080;fill-rule:nonzero;stroke:none;stroke-width:1;stroke-linecap:butt;stroke-linejoin:miter;stroke-miterlimit:4;stroke-dasharray:none;stroke-dashoffset:0"
   vector-effect="non-scaling-stroke"
   transform="translate(-54.41,-1.54)"
   d="M 0,3.08721 V 0 h 108.82474 v 3.08721 z"
   stroke-linecap="round"
   id="path2857" />
</g>
<g
   transform="matrix(1.3597618,0,0,1.48,199.43631,108.41)"
   id="-KQQg0T89PgKbQHkfnEWH">
<path
   style="opacity:1;fill:#808080;fill-rule:nonzero;stroke:none;stroke-width:1;stroke-linecap:butt;stroke-linejoin:miter;stroke-miterlimit:4;stroke-dasharray:none;stroke-dashoffset:0"
   vector-effect="non-scaling-stroke"
   transform="translate(-54.41,-1.54)"
   d="M 0,3.08721 V 0 h 108.82474 v 3.08721 z"
   stroke-linecap="round"
   id="path2860" />
</g>
<g
   transform="matrix(1.4797408,0,0,1.48,135.42753,29.23)"
   id="u-OQFUqiewtwJXj3SIeUK">
<path
   style="opacity:1;fill:#808080;fill-rule:nonzero;stroke:none;stroke-width:1;stroke-linecap:butt;stroke-linejoin:miter;stroke-miterlimit:4;stroke-dasharray:none;stroke-dashoffset:0"
   vector-effect="non-scaling-stroke"
   transform="translate(-37.82,-1.54)"
   d="M 0,3.08721 V 0 h 75.63704 v 3.08721 z"
   stroke-linecap="round"
   id="path2863" />
</g>
<g
   transform="matrix(1.4797408,0,0,1.48,156.06391,40.22)"
   id="jhpNkLhR4d_tJPvSCo_KN">
<path
   style="opacity:1;fill:#808080;fill-rule:nonzero;stroke:none;stroke-width:1;stroke-linecap:butt;stroke-linejoin:miter;stroke-miterlimit:4;stroke-dasharray:none;stroke-dashoffset:0"
   vector-effect="non-scaling-stroke"
   transform="translate(-37.82,-1.54)"
   d="M 0,3.08721 V 0 h 75.63704 v 3.08721 z"
   stroke-linecap="round"
   id="path2866" />
</g>
<g
   transform="matrix(1.2697776,0,0,1.27,268.69418,86.43)"
   id="vLXU_4xk1oOnQRxynyrI0">
<path
   style="opacity:1;fill:#808080;fill-rule:nonzero;stroke:none;stroke-width:1;stroke-linecap:butt;stroke-linejoin:miter;stroke-miterlimit:4;stroke-dasharray:none;stroke-dashoffset:0"
   vector-effect="non-scaling-stroke"
   transform="translate(-13.31,-1.84)"
   d="M 0,3.68815 V 0 h 26.61292 v 3.68815 z"
   stroke-linecap="round"
   id="path2869" />
</g>
<g
   transform="matrix(1.649711,0,0,1.48,261.35547,97.68)"
   id="8hkLykf3Dj65tPzVTnC2X">
<path
   style="opacity:1;fill:#808080;fill-rule:nonzero;stroke:none;stroke-width:1;stroke-linecap:butt;stroke-linejoin:miter;stroke-miterlimit:4;stroke-dasharray:none;stroke-dashoffset:0"
   vector-effect="non-scaling-stroke"
   d="M -18.52335,1.54361 V -1.5436 h 37.0467 v 3.08721 z"
   stroke-linecap="round"
   id="path2872" />
</g>
<g
   transform="matrix(2.1396252,0,0,1.48,164.18249,131.78)"
   id="7g4aMU9dHGdORNSEaq0DX">
<path
   style="opacity:1;fill:#808080;fill-rule:nonzero;stroke:none;stroke-width:1;stroke-linecap:butt;stroke-linejoin:miter;stroke-miterlimit:4;stroke-dasharray:none;stroke-dashoffset:0"
   vector-effect="non-scaling-stroke"
   d="M -18.52335,1.54361 V -1.5436 h 37.0467 v 3.08721 z"
   stroke-linecap="round"
   id="path2875" />
</g>
<g
   transform="matrix(1.1298021,0,0,1.48,424.09696,219.21)"
   id="ZaBrAHYIcRubr0klHj8il">
<path
   style="opacity:1;fill:#808080;fill-rule:nonzero;stroke:none;stroke-width:1;stroke-linecap:butt;stroke-linejoin:miter;stroke-miterlimit:4;stroke-dasharray:none;stroke-dashoffset:0"
   vector-effect="non-scaling-stroke"
   transform="translate(-37.82,-1.54)"
   d="M 0,3.08721 V 0 h 75.63704 v 3.08721 z"
   stroke-linecap="round"
   id="path2878" />
</g>
<g
   transform="matrix(1.2797758,0,0,1.48,438.11451,274.6)"
   id="oOe8x1EJN3XngywNm8VvW">
<path
   style="opacity:1;fill:#808080;fill-rule:nonzero;stroke:none;stroke-width:1;stroke-linecap:butt;stroke-linejoin:miter;stroke-miterlimit:4;stroke-dasharray:none;stroke-dashoffset:0"
   vector-effect="non-scaling-stroke"
   transform="translate(-37.82,-1.54)"
   d="M 0,3.08721 V 0 h 75.63704 v 3.08721 z"
   stroke-linecap="round"
   id="path2881" />
</g>
<g
   transform="matrix(1.4797408,0,0,1.46,352.48951,274.39)"
   id="JMM_QgiuHRejYpjNED6Xj">
<path
   style="opacity:1;fill:#808080;fill-rule:nonzero;stroke:none;stroke-width:1;stroke-linecap:butt;stroke-linejoin:miter;stroke-miterlimit:4;stroke-dasharray:none;stroke-dashoffset:0"
   vector-effect="non-scaling-stroke"
   transform="translate(-18.52,-1.54)"
   d="M 0,3.08721 V 0 h 37.0467 v 3.08721 z"
   stroke-linecap="round"
   id="path2884" />
</g>
<g
   transform="matrix(1.2697776,0,0,1.27,19.887759,208.09)"
   id="GULUUNeG2WSCFfYqi01WI">
<path
   style="opacity:1;fill:#008bff;fill-rule:nonzero;stroke:none;stroke-width:1;stroke-linecap:butt;stroke-linejoin:miter;stroke-miterlimit:4;stroke-dasharray:none;stroke-dashoffset:0"
   vector-effect="non-scaling-stroke"
   transform="translate(-13.31,-1.84)"
   d="M 0,3.68815 V 0 h 26.61292 v 3.68815 z"
   stroke-linecap="round"
   id="path2887" />
</g>
<g
   transform="matrix(9.4583433,0,0,1.27,302.14832,284.85)"
   id="ekK49rG5JvOXD_p3RejI7">
<path
   style="opacity:1;fill:#808080;fill-rule:nonzero;stroke:none;stroke-width:1;stroke-linecap:butt;stroke-linejoin:miter;stroke-miterlimit:4;stroke-dasharray:none;stroke-dashoffset:0"
   vector-effect="non-scaling-stroke"
   transform="translate(-13.31,-1.84)"
   d="M 0,3.68815 V 0 h 26.61292 v 3.68815 z"
   stroke-linecap="round"
   id="path2890" />
</g>
<g
   transform="matrix(1.2697776,0,0,1.27,235.39002,40.16)"
   id="izBstWemwp-0FuQJb9Ohh">
<path
   style="opacity:1;fill:#f79808;fill-rule:nonzero;stroke:none;stroke-width:1;stroke-linecap:butt;stroke-linejoin:miter;stroke-miterlimit:4;stroke-dasharray:none;stroke-dashoffset:0"
   vector-effect="non-scaling-stroke"
   transform="translate(-13.31,-1.84)"
   d="M 0,3.68815 V 0 h 26.61292 v 3.68815 z"
   stroke-linecap="round"
   id="path2893" />
</g>
<g
   transform="matrix(1.4497461,0,0,1.48,90.405407,108.41)"
   id="5XEqYxv-KYikg_mcgfZyy">
<path
   style="opacity:1;fill:#808080;fill-rule:nonzero;stroke:none;stroke-width:1;stroke-linecap:butt;stroke-linejoin:miter;stroke-miterlimit:4;stroke-dasharray:none;stroke-dashoffset:0"
   vector-effect="non-scaling-stroke"
   transform="translate(-18.52,-1.54)"
   d="M 0,3.08721 V 0 h 37.0467 v 3.08721 z"
   stroke-linecap="round"
   id="path2896" />
</g>
<g
   transform="matrix(2.6995272,0,0,1.27,56.111414,403.72)"
   id="mVdbZCAOcm4r1TnfDXvrX">
<path
   style="opacity:1;fill:#808080;fill-rule:nonzero;stroke:none;stroke-width:1;stroke-linecap:butt;stroke-linejoin:miter;stroke-miterlimit:4;stroke-dasharray:none;stroke-dashoffset:0"
   vector-effect="non-scaling-stroke"
   transform="translate(-13.31,-1.84)"
   d="M 0,3.68815 V 0 h 26.61292 v 3.68815 z"
   stroke-linecap="round"
   id="path2899" />
</g>
<g
   transform="matrix(1.969655,0,0,1.48,93.594849,392.93)"
   id="9gom5KuW5g-IaRZ9NDYS-">
<path
   style="opacity:1;fill:#808080;fill-rule:nonzero;stroke:none;stroke-width:1;stroke-linecap:butt;stroke-linejoin:miter;stroke-miterlimit:4;stroke-dasharray:none;stroke-dashoffset:0"
   vector-effect="non-scaling-stroke"
   transform="translate(-37.82,-1.54)"
   d="M 0,3.08721 V 0 h 75.63704 v 3.08721 z"
   stroke-linecap="round"
   id="path2902" />
</g>
<g
   transform="matrix(0.59989492,0,0,1.48,467.18942,284.91)"
   id="1_T7Ry1OfsA--JM9nh76Q">
<path
   style="opacity:1;fill:#808080;fill-rule:nonzero;stroke:none;stroke-width:1;stroke-linecap:butt;stroke-linejoin:miter;stroke-miterlimit:4;stroke-dasharray:none;stroke-dashoffset:0"
   vector-effect="non-scaling-stroke"
   transform="translate(-54.41,-1.54)"
   d="M 0,3.08721 V 0 h 108.82474 v 3.08721 z"
   stroke-linecap="round"
   id="path2905" />
</g>
<g
   transform="matrix(1.0798109,0,0,1.48,252.56701,208.4)"
   id="xg8l0gcV8kZbckd7hDNw7">
<path
   style="opacity:1;fill:#808080;fill-rule:nonzero;stroke:none;stroke-width:1;stroke-linecap:butt;stroke-linejoin:miter;stroke-miterlimit:4;stroke-dasharray:none;stroke-dashoffset:0"
   vector-effect="non-scaling-stroke"
   transform="translate(-37.82,-1.54)"
   d="M 0,3.08721 V 0 h 75.63704 v 3.08721 z"
   stroke-linecap="round"
   id="path2908" />
</g>
<g
   transform="matrix(2.2796007,0,0,1.48,137.59715,97.69)"
   id="vqDQHdxzM9HWKPgev1hPe">
<path
   style="opacity:1;fill:#808080;fill-rule:nonzero;stroke:none;stroke-width:1;stroke-linecap:butt;stroke-linejoin:miter;stroke-miterlimit:4;stroke-dasharray:none;stroke-dashoffset:0"
   vector-effect="non-scaling-stroke"
   transform="translate(-37.82,-1.54)"
   d="M 0,3.08721 V 0 h 75.63704 v 3.08721 z"
   stroke-linecap="round"
   id="path2911" />
</g>
<g
   transform="matrix(1.6597093,0,0,1.48,171.03129,229.58)"
   id="8q4Vx6aeTEYlfd1LxIZEe">
<path
   style="opacity:1;fill:#808080;fill-rule:nonzero;stroke:none;stroke-width:1;stroke-linecap:butt;stroke-linejoin:miter;stroke-miterlimit:4;stroke-dasharray:none;stroke-dashoffset:0"
   vector-effect="non-scaling-stroke"
   transform="translate(-54.41,-1.54)"
   d="M 0,3.08721 V 0 h 108.82474 v 3.08721 z"
   stroke-linecap="round"
   id="path2914" />
</g>
<g
   transform="matrix(1.3697601,0,0,1.48,192.20758,51.36)"
   id="Wi31mwK-ar9mSxKG6kgAo">
<path
   style="opacity:1;fill:#808080;fill-rule:nonzero;stroke:none;stroke-width:1;stroke-linecap:butt;stroke-linejoin:miter;stroke-miterlimit:4;stroke-dasharray:none;stroke-dashoffset:0"
   vector-effect="non-scaling-stroke"
   transform="translate(-37.82,-1.54)"
   d="M 0,3.08721 V 0 h 75.63704 v 3.08721 z"
   stroke-linecap="round"
   id="path2917" />
</g>
<g
   transform="matrix(1.4797408,0,0,1.48,164.62241,86.49)"
   id="OmhQXuHT_HEDqR_mihXg0">
<path
   style="opacity:1;fill:#808080;fill-rule:nonzero;stroke:none;stroke-width:1;stroke-linecap:butt;stroke-linejoin:miter;stroke-miterlimit:4;stroke-dasharray:none;stroke-dashoffset:0"
   vector-effect="non-scaling-stroke"
   transform="translate(-54.41,-1.54)"
   d="M 0,3.08721 V 0 h 108.82474 v 3.08721 z"
   stroke-linecap="round"
   id="path2920" />
</g>
<g
   transform="matrix(0.82985465,0,0,1.48,156.06391,467.02)"
   id="g06rub5Ze4uzsgcyta5yU">
<path
   style="opacity:1;fill:#808080;fill-rule:nonzero;stroke:none;stroke-width:1;stroke-linecap:butt;stroke-linejoin:miter;stroke-miterlimit:4;stroke-dasharray:none;stroke-dashoffset:0"
   vector-effect="non-scaling-stroke"
   transform="translate(-54.41,-1.54)"
   d="M 0,3.08721 V 0 h 108.82474 v 3.08721 z"
   stroke-linecap="round"
   id="path2923" />
</g>
<g
   transform="matrix(1.4797408,0,0,1.48,75.607999,467.02)"
   id="ahbAzV_U9lkt7hhR3dwXs">
<path
   style="opacity:1;fill:#808080;fill-rule:nonzero;stroke:none;stroke-width:1;stroke-linecap:butt;stroke-linejoin:miter;stroke-miterlimit:4;stroke-dasharray:none;stroke-dashoffset:0"
   vector-effect="non-scaling-stroke"
   transform="translate(-18.52,-1.54)"
   d="M 0,3.08721 V 0 h 37.0467 v 3.08721 z"
   stroke-linecap="round"
   id="path2926" />
</g>
<g
   transform="matrix(2.3595867,0,0,1.48,126.55908,456.28)"
   id="szkOJ57L1PsbMRqo2uizZ">
<path
   style="opacity:1;fill:#808080;fill-rule:nonzero;stroke:none;stroke-width:1;stroke-linecap:butt;stroke-linejoin:miter;stroke-miterlimit:4;stroke-dasharray:none;stroke-dashoffset:0"
   vector-effect="non-scaling-stroke"
   d="M -37.81852,1.5436 V -1.54361 H 37.81852 V 1.5436 Z"
   stroke-linecap="round"
   id="path2929" />
</g>
<g
   transform="matrix(1.8696725,0,0,1.48,37.724635,229.64)"
   id="55R0gDTT_FPLf26HsW6Su">
<path
   style="opacity:1;fill:#808080;fill-rule:nonzero;stroke:none;stroke-width:1;stroke-linecap:butt;stroke-linejoin:miter;stroke-miterlimit:4;stroke-dasharray:none;stroke-dashoffset:0"
   vector-effect="non-scaling-stroke"
   transform="translate(-18.52,-1.54)"
   d="M 0,3.08721 V 0 h 37.0467 v 3.08721 z"
   stroke-linecap="round"
   id="path2932" />
</g>
<g
   transform="matrix(1.4797408,0,0,1.48,105.74272,51.36)"
   id="jzptUh7u4q60E-qbSv_Ll">
<path
   style="opacity:1;fill:#808080;fill-rule:nonzero;stroke:none;stroke-width:1;stroke-linecap:butt;stroke-linejoin:miter;stroke-miterlimit:4;stroke-dasharray:none;stroke-dashoffset:0"
   vector-effect="non-scaling-stroke"
   transform="translate(-18.52,-1.54)"
   d="M 0,3.08721 V 0 h 37.0467 v 3.08721 z"
   stroke-linecap="round"
   id="path2935" />
</g>
<g
   transform="matrix(0.84985114,0,0,1.48,214.05375,29.18)"
   id="i_TcLyjPt82dPuOdyMkNZ">
<path
   style="opacity:1;fill:#808080;fill-rule:nonzero;stroke:none;stroke-width:1;stroke-linecap:butt;stroke-linejoin:miter;stroke-miterlimit:4;stroke-dasharray:none;stroke-dashoffset:0"
   vector-effect="non-scaling-stroke"
   transform="translate(-18.52,-1.54)"
   d="M 0,3.08721 V 0 h 37.0467 v 3.08721 z"
   stroke-linecap="round"
   id="path2938" />
</g>
<g
   transform="matrix(1.5697251,0,0,1.48,230.9008,274.6)"
   id="c41ThrpTuRmRhqdT-0REv">
<path
   style="opacity:1;fill:#808080;fill-rule:nonzero;stroke:none;stroke-width:1;stroke-linecap:butt;stroke-linejoin:miter;stroke-miterlimit:4;stroke-dasharray:none;stroke-dashoffset:0"
   vector-effect="non-scaling-stroke"
   transform="translate(-54.41,-1.54)"
   d="M 0,3.08721 V 0 h 108.82474 v 3.08721 z"
   stroke-linecap="round"
   id="path2941" />
</g>
<g
   transform="matrix(1.3797583,0,0,1.27,572.45098,553.9)"
   id="F7zyMItrMuslVn-MgGMjI">
<path
   style="opacity:1;fill:none;fill-rule:nonzero;stroke:none;stroke-width:1;stroke-linecap:butt;stroke-linejoin:miter;stroke-miterlimit:4;stroke-dasharray:none;stroke-dashoffset:0"
   vector-effect="non-scaling-stroke"
   transform="translate(-840.83,-561.3)"
   d="m 866.14147,532.28381 c -3.70615,-0.15179 -7.30281,-0.16975 -10.76983,-0.0499 -21.35628,0.73815 -35.58147,6.85689 -39.02807,16.788 -3.4466,9.93111 3.92974,23.54668 20.23724,37.35613 q 2.419,2.0484 5.04258,4.06347 c -0.13965,-21.92612 8.72325,-42.94921 24.51808,-58.15768 z"
   stroke-linecap="round"
   id="path2944" />
</g>
<rect
   style="fill:#fdfdfd"
   id="rect2951"
   width="2.0000038"
   height="539.24597"
   x="0"
   y="0" /></svg>
