<?xml version="1.0" encoding="UTF-8" standalone="no" ?>
<!DOCTYPE svg PUBLIC "-//W3C//DTD SVG 1.1//EN" "http://www.w3.org/Graphics/SVG/1.1/DTD/svg11.dtd">
<svg xmlns="http://www.w3.org/2000/svg" xmlns:xlink="http://www.w3.org/1999/xlink" version="1.1" width="861.34285" height="648.67936" viewBox="0 0 861.34285 648.67936" xml:space="preserve">
<desc>Created with Fabric.js 4.6.0</desc>
<defs>
</defs>
<g transform="matrix(1.37 0 0 1.06 429.63 270.27)" id="ZIDO1Luypp2qOE59gCbOn"  >
<path style="stroke: none; stroke-width: 1; stroke-dasharray: none; stroke-linecap: butt; stroke-dashoffset: 0; stroke-linejoin: miter; stroke-miterlimit: 4; fill: rgb(38,38,38); fill-rule: nonzero; opacity: 1;" vector-effect="non-scaling-stroke"  transform=" translate(0, 0)" d="M -310.74884 253.9962 L -310.74884 -253.9962 L 310.74884 -253.9962 L 310.74884 253.9962 z" stroke-linecap="round" />
</g>
<g transform="matrix(1.49 0 0 1.27 213 445.3)" id="V4VgJFfNO4khhZA-fT7Kv"  >
<path style="stroke: none; stroke-width: 1; stroke-dasharray: none; stroke-linecap: butt; stroke-dashoffset: 0; stroke-linejoin: miter; stroke-miterlimit: 4; fill: rgb(0,139,255); fill-rule: nonzero; opacity: 1;" vector-effect="non-scaling-stroke"  transform=" translate(-13.31, -1.84)" d="M 0 3.68815 L 0 0 L 26.61292 0 L 26.61292 3.68815 z" stroke-linecap="round" />
</g>
<g transform="matrix(2.36 0 0 1.48 96.24 445.36)" id="6jGFGPRkw9oYKHhOoNbfC"  >
<path style="stroke: none; stroke-width: 1; stroke-dasharray: none; stroke-linecap: butt; stroke-dashoffset: 0; stroke-linejoin: miter; stroke-miterlimit: 4; fill: rgb(128,128,128); fill-rule: nonzero; opacity: 1;" vector-effect="non-scaling-stroke"  transform=" translate(-37.82, -1.54)" d="M 0 3.08721 L 0 0 L 75.63704 0 L 75.63704 3.08721 z" stroke-linecap="round" />
</g>
<g transform="matrix(5.74 0 0 1.27 175.93 295.95)" id="EvJLyI-U0IF2XncDAYbPu"  >
<path style="stroke: none; stroke-width: 1; stroke-dasharray: none; stroke-linecap: butt; stroke-dashoffset: 0; stroke-linejoin: miter; stroke-miterlimit: 4; fill: rgb(128,128,128); fill-rule: nonzero; opacity: 1;" vector-effect="non-scaling-stroke"  transform=" translate(-13.31, -1.84)" d="M 0 3.68815 L 0 0 L 26.61292 0 L 26.61292 3.68815 z" stroke-linecap="round" />
</g>
<g transform="matrix(5.43 0 0 1.27 331.65 295.95)" id="l4BNWWQF8O4dUq4WTrnoi"  >
<path style="stroke: none; stroke-width: 1; stroke-dasharray: none; stroke-linecap: butt; stroke-dashoffset: 0; stroke-linejoin: miter; stroke-miterlimit: 4; fill: rgb(128,128,128); fill-rule: nonzero; opacity: 1;" vector-effect="non-scaling-stroke"  transform=" translate(-13.31, -1.84)" d="M 0 3.68815 L 0 0 L 26.61292 0 L 26.61292 3.68815 z" stroke-linecap="round" />
</g>
<g transform="matrix(0.41 0 0 1.48 230.49 240.12)" id="Z1PEyp_rp9R57VpIANegL"  >
<path style="stroke: none; stroke-width: 1; stroke-dasharray: none; stroke-linecap: butt; stroke-dashoffset: 0; stroke-linejoin: miter; stroke-miterlimit: 4; fill: rgb(128,128,128); fill-rule: nonzero; opacity: 1;" vector-effect="non-scaling-stroke"  transform=" translate(-54.41, -1.54)" d="M 0 3.08721 L 0 0 L 108.82474 0 L 108.82474 3.08721 z" stroke-linecap="round" />
</g>
<g transform="matrix(0.58 0 0 1.48 291.47 240.12)" id="H5lQcQOPXCBpIqkzOaxhS"  >
<path style="stroke: none; stroke-width: 1; stroke-dasharray: none; stroke-linecap: butt; stroke-dashoffset: 0; stroke-linejoin: miter; stroke-miterlimit: 4; fill: rgb(247,152,8); fill-rule: nonzero; opacity: 1;" vector-effect="non-scaling-stroke"  transform=" translate(-54.41, -1.54)" d="M 0 3.08721 L 0 0 L 108.82474 0 L 108.82474 3.08721 z" stroke-linecap="round" />
</g>
<g transform="matrix(3.57 0 0 1.48 134.11 250.53)" id="jJrlJD9iym9TJLwT3DlrK"  >
<path style="stroke: none; stroke-width: 1; stroke-dasharray: none; stroke-linecap: butt; stroke-dashoffset: 0; stroke-linejoin: miter; stroke-miterlimit: 4; fill: rgb(128,128,128); fill-rule: nonzero; opacity: 1;" vector-effect="non-scaling-stroke"  transform=" translate(-18.52, -1.54)" d="M 0 3.08721 L 0 0 L 37.0467 0 L 37.0467 3.08721 z" stroke-linecap="round" />
</g>
<g transform="matrix(3.06 0 0 1.27 44.18 219.53)" id="xOate3WwEpszpxGsizutP"  >
<path style="stroke: none; stroke-width: 1; stroke-dasharray: none; stroke-linecap: butt; stroke-dashoffset: 0; stroke-linejoin: miter; stroke-miterlimit: 4; fill: rgb(128,128,128); fill-rule: nonzero; opacity: 1;" vector-effect="non-scaling-stroke"  transform=" translate(-13.31, -1.84)" d="M 0 3.68815 L 0 0 L 26.61292 0 L 26.61292 3.68815 z" stroke-linecap="round" />
</g>
<g transform="matrix(1.86 0 0 1.48 304.21 219.47)" id="YN1oM9fZIkjhbyUSXBMPd"  >
<path style="stroke: none; stroke-width: 1; stroke-dasharray: none; stroke-linecap: butt; stroke-dashoffset: 0; stroke-linejoin: miter; stroke-miterlimit: 4; fill: rgb(128,128,128); fill-rule: nonzero; opacity: 1;" vector-effect="non-scaling-stroke"  transform=" translate(-37.82, -1.54)" d="M 0 3.08721 L 0 0 L 75.63704 0 L 75.63704 3.08721 z" stroke-linecap="round" />
</g>
<g transform="matrix(3.13 0 0 1.46 326.22 229.81)" id="E0G78nGGtyFf2KM-jn7OZ"  >
<path style="stroke: none; stroke-width: 1; stroke-dasharray: none; stroke-linecap: butt; stroke-dashoffset: 0; stroke-linejoin: miter; stroke-miterlimit: 4; fill: rgb(128,128,128); fill-rule: nonzero; opacity: 1;" vector-effect="non-scaling-stroke"  transform=" translate(-18.52, -1.54)" d="M 0 3.08721 L 0 0 L 37.0467 0 L 37.0467 3.08721 z" stroke-linecap="round" />
</g>
<g transform="matrix(1.77 0 0 1.46 371.05 208.69)" id="Mb827kk4A_HCVxzGUOjjA"  >
<path style="stroke: none; stroke-width: 1; stroke-dasharray: none; stroke-linecap: butt; stroke-dashoffset: 0; stroke-linejoin: miter; stroke-miterlimit: 4; fill: rgb(128,128,128); fill-rule: nonzero; opacity: 1;" vector-effect="non-scaling-stroke"  transform=" translate(-37.82, -1.54)" d="M 0 3.08721 L 0 0 L 75.63704 0 L 75.63704 3.08721 z" stroke-linecap="round" />
</g>
<g transform="matrix(5.54 0 0 1.27 95.48 285.11)" id="eZSegcddbLg0HGTi9PEwg"  >
<path style="stroke: none; stroke-width: 1; stroke-dasharray: none; stroke-linecap: butt; stroke-dashoffset: 0; stroke-linejoin: miter; stroke-miterlimit: 4; fill: rgb(128,128,128); fill-rule: nonzero; opacity: 1;" vector-effect="non-scaling-stroke"  transform=" translate(-13.31, -1.84)" d="M 0 3.68815 L 0 0 L 26.61292 0 L 26.61292 3.68815 z" stroke-linecap="round" />
</g>
<g transform="matrix(4.37 0 0 1.27 80.02 274.56)" id="W6BYxB5ZpqCJdw7FNZhw0"  >
<path style="stroke: none; stroke-width: 1; stroke-dasharray: none; stroke-linecap: butt; stroke-dashoffset: 0; stroke-linejoin: miter; stroke-miterlimit: 4; fill: rgb(128,128,128); fill-rule: nonzero; opacity: 1;" vector-effect="non-scaling-stroke"  transform=" translate(-13.31, -1.84)" d="M 0 3.68815 L 0 0 L 26.61292 0 L 26.61292 3.68815 z" stroke-linecap="round" />
</g>
<g transform="matrix(1.5 0 0 1.48 60.21 132.05)" id="Nszu06mPJ3knqJz3BDK7z"  >
<path style="stroke: none; stroke-width: 1; stroke-dasharray: none; stroke-linecap: butt; stroke-dashoffset: 0; stroke-linejoin: miter; stroke-miterlimit: 4; fill: rgb(128,128,128); fill-rule: nonzero; opacity: 1;" vector-effect="non-scaling-stroke"  transform=" translate(-37.82, -1.54)" d="M 0 3.08721 L 0 0 L 75.63704 0 L 75.63704 3.08721 z" stroke-linecap="round" />
</g>
<g transform="matrix(5.31 0 0 1.48 101.86 240.12)" id="JMSWctED9w8V1tuRYLAn4"  >
<path style="stroke: none; stroke-width: 1; stroke-dasharray: none; stroke-linecap: butt; stroke-dashoffset: 0; stroke-linejoin: miter; stroke-miterlimit: 4; fill: rgb(128,128,128); fill-rule: nonzero; opacity: 1;" vector-effect="non-scaling-stroke"  transform=" translate(-18.52, -1.54)" d="M 0 3.08721 L 0 0 L 37.0467 0 L 37.0467 3.08721 z" stroke-linecap="round" />
</g>
<g transform="matrix(1.79 0 0 1.48 200.74 142.73)" id="dRG7TGknz-XqLfpM5Z01v"  >
<path style="stroke: none; stroke-width: 1; stroke-dasharray: none; stroke-linecap: butt; stroke-dashoffset: 0; stroke-linejoin: miter; stroke-miterlimit: 4; fill: rgb(128,128,128); fill-rule: nonzero; opacity: 1;" vector-effect="non-scaling-stroke"  transform=" translate(0, 0)" d="M -18.52335 1.54361 L -18.52335 -1.5435999999999999 L 18.52335 -1.5435999999999999 L 18.52335 1.54361 z" stroke-linecap="round" />
</g>
<g transform="matrix(1.34 0 0 1.48 85.97 142.74)" id="EVfmywh8j_m0xiqVwf3lx"  >
<path style="stroke: none; stroke-width: 1; stroke-dasharray: none; stroke-linecap: butt; stroke-dashoffset: 0; stroke-linejoin: miter; stroke-miterlimit: 4; fill: rgb(128,128,128); fill-rule: nonzero; opacity: 1;" vector-effect="non-scaling-stroke"  transform=" translate(-54.41, -1.54)" d="M 0 3.08721 L 0 0 L 108.82474 0 L 108.82474 3.08721 z" stroke-linecap="round" />
</g>
<g transform="matrix(0.64 0 0 1.48 225.88 154.03)" id="lgGDGH-UNwUMvudAkiKi4"  >
<path style="stroke: none; stroke-width: 1; stroke-dasharray: none; stroke-linecap: butt; stroke-dashoffset: 0; stroke-linejoin: miter; stroke-miterlimit: 4; fill: rgb(128,128,128); fill-rule: nonzero; opacity: 1;" vector-effect="non-scaling-stroke"  transform=" translate(-54.41, -1.54)" d="M 0 3.08721 L 0 0 L 108.82474 0 L 108.82474 3.08721 z" stroke-linecap="round" />
</g>
<g transform="matrix(1.27 0 0 1.27 166.12 154.09)" id="4_MlINnn1tNzRIiDIUQ3p"  >
<path style="stroke: none; stroke-width: 1; stroke-dasharray: none; stroke-linecap: butt; stroke-dashoffset: 0; stroke-linejoin: miter; stroke-miterlimit: 4; fill: rgb(128,128,128); fill-rule: nonzero; opacity: 1;" vector-effect="non-scaling-stroke"  transform=" translate(-13.31, -1.84)" d="M 0 3.68815 L 0 0 L 26.61292 0 L 26.61292 3.68815 z" stroke-linecap="round" />
</g>
<g transform="matrix(1.57 0 0 1.48 81.29 154.03)" id="lFjGQNGciN153cOBXNmeM"  >
<path style="stroke: none; stroke-width: 1; stroke-dasharray: none; stroke-linecap: butt; stroke-dashoffset: 0; stroke-linejoin: miter; stroke-miterlimit: 4; fill: rgb(128,128,128); fill-rule: nonzero; opacity: 1;" vector-effect="non-scaling-stroke"  transform=" translate(-37.82, -1.54)" d="M 0 3.08721 L 0 0 L 75.63704 0 L 75.63704 3.08721 z" stroke-linecap="round" />
</g>
<g transform="matrix(2.26 0 0 1.48 192.01 165.19)" id="8oM5kmCVtUczL-wGqPqLA"  >
<path style="stroke: none; stroke-width: 1; stroke-dasharray: none; stroke-linecap: butt; stroke-dashoffset: 0; stroke-linejoin: miter; stroke-miterlimit: 4; fill: rgb(128,128,128); fill-rule: nonzero; opacity: 1;" vector-effect="non-scaling-stroke"  transform=" translate(-37.82, -1.54)" d="M 0 3.08721 L 0 0 L 75.63704 0 L 75.63704 3.08721 z" stroke-linecap="round" />
</g>
<g transform="matrix(1.78 0 0 1.48 65.22 165.19)" id="Av89fYMn3LpexHOKo6mGG"  >
<path style="stroke: none; stroke-width: 1; stroke-dasharray: none; stroke-linecap: butt; stroke-dashoffset: 0; stroke-linejoin: miter; stroke-miterlimit: 4; fill: rgb(128,128,128); fill-rule: nonzero; opacity: 1;" vector-effect="non-scaling-stroke"  transform=" translate(-18.52, -1.54)" d="M 0 3.08721 L 0 0 L 37.0467 0 L 37.0467 3.08721 z" stroke-linecap="round" />
</g>
<g transform="matrix(1.71 0 0 1.48 229.2 176.3)" id="qyOUTbK2JoEy_z0_uRBdD"  >
<path style="stroke: none; stroke-width: 1; stroke-dasharray: none; stroke-linecap: butt; stroke-dashoffset: 0; stroke-linejoin: miter; stroke-miterlimit: 4; fill: rgb(128,128,128); fill-rule: nonzero; opacity: 1;" vector-effect="non-scaling-stroke"  transform=" translate(0, 0)" d="M -18.52335 1.54361 L -18.52335 -1.5435999999999999 L 18.52335 -1.5435999999999999 L 18.52335 1.54361 z" stroke-linecap="round" />
</g>
<g transform="matrix(1.55 0 0 1.48 106.08 176.31)" id="qckDrmDEafvUbVm0o_3Q1"  >
<path style="stroke: none; stroke-width: 1; stroke-dasharray: none; stroke-linecap: butt; stroke-dashoffset: 0; stroke-linejoin: miter; stroke-miterlimit: 4; fill: rgb(128,128,128); fill-rule: nonzero; opacity: 1;" vector-effect="non-scaling-stroke"  transform=" translate(-54.41, -1.54)" d="M 0 3.08721 L 0 0 L 108.82474 0 L 108.82474 3.08721 z" stroke-linecap="round" />
</g>
<g transform="matrix(1.55 0 0 1.48 87.94 187.38)" id="g65_OjXOyO8o5ux35L0F4"  >
<path style="stroke: none; stroke-width: 1; stroke-dasharray: none; stroke-linecap: butt; stroke-dashoffset: 0; stroke-linejoin: miter; stroke-miterlimit: 4; fill: rgb(128,128,128); fill-rule: nonzero; opacity: 1;" vector-effect="non-scaling-stroke"  transform=" translate(-54.41, -1.54)" d="M 0 3.08721 L 0 0 L 108.82474 0 L 108.82474 3.08721 z" stroke-linecap="round" />
</g>
<g transform="matrix(1.3 0 0 1.48 116.9 219.46)" id="-aVVRqt7-1jgnYeJ9jxJk"  >
<path style="stroke: none; stroke-width: 1; stroke-dasharray: none; stroke-linecap: butt; stroke-dashoffset: 0; stroke-linejoin: miter; stroke-miterlimit: 4; fill: rgb(128,128,128); fill-rule: nonzero; opacity: 1;" vector-effect="non-scaling-stroke"  transform=" translate(0, 0)" d="M -18.52335 1.5436 L -18.52335 -1.5436099999999997 L 18.52335 -1.5436099999999997 L 18.52335 1.5436 z" stroke-linecap="round" />
</g>
<g transform="matrix(0.52 0 0 1.48 31.68 250.53)" id="07OaigQBBeqe2WUzJIznX"  >
<path style="stroke: none; stroke-width: 1; stroke-dasharray: none; stroke-linecap: butt; stroke-dashoffset: 0; stroke-linejoin: miter; stroke-miterlimit: 4; fill: rgb(128,128,128); fill-rule: nonzero; opacity: 1;" vector-effect="non-scaling-stroke"  transform=" translate(-54.41, -1.54)" d="M 0 3.08721 L 0 0 L 108.82474 0 L 108.82474 3.08721 z" stroke-linecap="round" />
</g>
<g transform="matrix(2.77 0 0 1.48 362.58 250.53)" id="1vqicwbHM3LckVE5Gpl80"  >
<path style="stroke: none; stroke-width: 1; stroke-dasharray: none; stroke-linecap: butt; stroke-dashoffset: 0; stroke-linejoin: miter; stroke-miterlimit: 4; fill: rgb(128,128,128); fill-rule: nonzero; opacity: 1;" vector-effect="non-scaling-stroke"  transform=" translate(-18.52, -1.54)" d="M 0 3.08721 L 0 0 L 37.0467 0 L 37.0467 3.08721 z" stroke-linecap="round" />
</g>
<g transform="matrix(2.55 0 0 1.48 255.65 250.53)" id="uPuZzB_oFcM-bSozci2Yx"  >
<path style="stroke: none; stroke-width: 1; stroke-dasharray: none; stroke-linecap: butt; stroke-dashoffset: 0; stroke-linejoin: miter; stroke-miterlimit: 4; fill: rgb(128,128,128); fill-rule: nonzero; opacity: 1;" vector-effect="non-scaling-stroke"  transform=" translate(-18.52, -1.54)" d="M 0 3.08721 L 0 0 L 37.0467 0 L 37.0467 3.08721 z" stroke-linecap="round" />
</g>
<g transform="matrix(0.86 0 0 1.48 377.3 240.12)" id="dfoOKI8y4t1mkaQbmtZqc"  >
<path style="stroke: none; stroke-width: 1; stroke-dasharray: none; stroke-linecap: butt; stroke-dashoffset: 0; stroke-linejoin: miter; stroke-miterlimit: 4; fill: rgb(128,128,128); fill-rule: nonzero; opacity: 1;" vector-effect="non-scaling-stroke"  transform=" translate(-54.41, -1.54)" d="M 0 3.08721 L 0 0 L 108.82474 0 L 108.82474 3.08721 z" stroke-linecap="round" />
</g>
<g transform="matrix(1.62 0 0 1.46 422.3 229.87)" id="XBFF4RJ0RtaLg2-1Qx2yr"  >
<path style="stroke: none; stroke-width: 1; stroke-dasharray: none; stroke-linecap: butt; stroke-dashoffset: 0; stroke-linejoin: miter; stroke-miterlimit: 4; fill: rgb(128,128,128); fill-rule: nonzero; opacity: 1;" vector-effect="non-scaling-stroke"  transform=" translate(-18.52, -1.54)" d="M 0 3.08721 L 0 0 L 37.0467 0 L 37.0467 3.08721 z" stroke-linecap="round" />
</g>
<g transform="matrix(1.41 0 0 1.48 136.59 381.45)" id="rL8iuMFA8XVeqJYP21wR5"  >
<path style="stroke: none; stroke-width: 1; stroke-dasharray: none; stroke-linecap: butt; stroke-dashoffset: 0; stroke-linejoin: miter; stroke-miterlimit: 4; fill: rgb(128,128,128); fill-rule: nonzero; opacity: 1;" vector-effect="non-scaling-stroke"  transform=" translate(-37.82, -1.54)" d="M 0 3.08721 L 0 0 L 75.63704 0 L 75.63704 3.08721 z" stroke-linecap="round" />
</g>
<g transform="matrix(1.39 0 0 1.27 56.3 381.39)" id="wMeZjU7uNoApP9YMxr-xe"  >
<path style="stroke: none; stroke-width: 1; stroke-dasharray: none; stroke-linecap: butt; stroke-dashoffset: 0; stroke-linejoin: miter; stroke-miterlimit: 4; fill: rgb(0,139,255); fill-rule: nonzero; opacity: 1;" vector-effect="non-scaling-stroke"  transform=" translate(-13.31, -1.84)" d="M 0 3.68815 L 0 0 L 26.61292 0 L 26.61292 3.68815 z" stroke-linecap="round" />
</g>
<g transform="matrix(1.55 0 0 1.48 121.91 370.55)" id="pbnDlDxw2VkgH_QuZcdjx"  >
<path style="stroke: none; stroke-width: 1; stroke-dasharray: none; stroke-linecap: butt; stroke-dashoffset: 0; stroke-linejoin: miter; stroke-miterlimit: 4; fill: rgb(128,128,128); fill-rule: nonzero; opacity: 1;" vector-effect="non-scaling-stroke"  transform=" translate(-54.41, -1.54)" d="M 0 3.08721 L 0 0 L 108.82474 0 L 108.82474 3.08721 z" stroke-linecap="round" />
</g>
<g transform="matrix(2.16 0 0 1.48 134.41 358.74)" id="7ntMeEgtOPo2B_X87yxED"  >
<path style="stroke: none; stroke-width: 1; stroke-dasharray: none; stroke-linecap: butt; stroke-dashoffset: 0; stroke-linejoin: miter; stroke-miterlimit: 4; fill: rgb(128,128,128); fill-rule: nonzero; opacity: 1;" vector-effect="non-scaling-stroke"  transform=" translate(-37.82, -1.54)" d="M 0 3.08721 L 0 0 L 75.63704 0 L 75.63704 3.08721 z" stroke-linecap="round" />
</g>
<g transform="matrix(0.66 0 0 1.48 32.84 358.73)" id="blQGr5CZxVBlwut2ttKiR"  >
<path style="stroke: none; stroke-width: 1; stroke-dasharray: none; stroke-linecap: butt; stroke-dashoffset: 0; stroke-linejoin: miter; stroke-miterlimit: 4; fill: rgb(247,152,8); fill-rule: nonzero; opacity: 1;" vector-effect="non-scaling-stroke"  transform=" translate(0, 0)" d="M -18.52335 1.5436 L -18.52335 -1.5436099999999997 L 18.52335 -1.5436099999999997 L 18.52335 1.5436 z" stroke-linecap="round" />
</g>
<g transform="matrix(1.64 0 0 1.48 109.76 348.16)" id="WKW6sg1VpY6ddwsrNprpM"  >
<path style="stroke: none; stroke-width: 1; stroke-dasharray: none; stroke-linecap: butt; stroke-dashoffset: 0; stroke-linejoin: miter; stroke-miterlimit: 4; fill: rgb(128,128,128); fill-rule: nonzero; opacity: 1;" vector-effect="non-scaling-stroke"  transform=" translate(-54.41, -1.54)" d="M 0 3.08721 L 0 0 L 108.82474 0 L 108.82474 3.08721 z" stroke-linecap="round" />
</g>
<g transform="matrix(2.67 0 0 1.27 56.69 296.06)" id="-SNj4A8t0OHZc_6GUpw5s"  >
<path style="stroke: none; stroke-width: 1; stroke-dasharray: none; stroke-linecap: butt; stroke-dashoffset: 0; stroke-linejoin: miter; stroke-miterlimit: 4; fill: rgb(128,128,128); fill-rule: nonzero; opacity: 1;" vector-effect="non-scaling-stroke"  transform=" translate(-13.31, -1.84)" d="M 0 3.68815 L 0 0 L 26.61292 0 L 26.61292 3.68815 z" stroke-linecap="round" />
</g>
<g transform="matrix(0.5 0 0 1.48 439.15 296)" id="CwE5dBgnq1zCeyyQ8DxmU"  >
<path style="stroke: none; stroke-width: 1; stroke-dasharray: none; stroke-linecap: butt; stroke-dashoffset: 0; stroke-linejoin: miter; stroke-miterlimit: 4; fill: rgb(128,128,128); fill-rule: nonzero; opacity: 1;" vector-effect="non-scaling-stroke"  transform=" translate(-54.41, -1.54)" d="M 0 3.08721 L 0 0 L 108.82474 0 L 108.82474 3.08721 z" stroke-linecap="round" />
</g>
<g transform="matrix(1.47 0 0 1.48 124.54 208.54)" id="YDbkkWJnsuKVVe-dTzhBO"  >
<path style="stroke: none; stroke-width: 1; stroke-dasharray: none; stroke-linecap: butt; stroke-dashoffset: 0; stroke-linejoin: miter; stroke-miterlimit: 4; fill: rgb(128,128,128); fill-rule: nonzero; opacity: 1;" vector-effect="non-scaling-stroke"  transform=" translate(-54.41, -1.54)" d="M 0 3.08721 L 0 0 L 108.82474 0 L 108.82474 3.08721 z" stroke-linecap="round" />
</g>
<g transform="matrix(0.71 0 0 1.48 187.19 219.47)" id="XoDTbLr8C1rQwjX58mqVT"  >
<path style="stroke: none; stroke-width: 1; stroke-dasharray: none; stroke-linecap: butt; stroke-dashoffset: 0; stroke-linejoin: miter; stroke-miterlimit: 4; fill: rgb(128,128,128); fill-rule: nonzero; opacity: 1;" vector-effect="non-scaling-stroke"  transform=" translate(-54.41, -1.54)" d="M 0 3.08721 L 0 0 L 108.82474 0 L 108.82474 3.08721 z" stroke-linecap="round" />
</g>
<g transform="matrix(1.36 0 0 1.48 199.93 108.67)" id="-KQQg0T89PgKbQHkfnEWH"  >
<path style="stroke: none; stroke-width: 1; stroke-dasharray: none; stroke-linecap: butt; stroke-dashoffset: 0; stroke-linejoin: miter; stroke-miterlimit: 4; fill: rgb(128,128,128); fill-rule: nonzero; opacity: 1;" vector-effect="non-scaling-stroke"  transform=" translate(-54.41, -1.54)" d="M 0 3.08721 L 0 0 L 108.82474 0 L 108.82474 3.08721 z" stroke-linecap="round" />
</g>
<g transform="matrix(1.48 0 0 1.48 135.91 29.49)" id="u-OQFUqiewtwJXj3SIeUK"  >
<path style="stroke: none; stroke-width: 1; stroke-dasharray: none; stroke-linecap: butt; stroke-dashoffset: 0; stroke-linejoin: miter; stroke-miterlimit: 4; fill: rgb(128,128,128); fill-rule: nonzero; opacity: 1;" vector-effect="non-scaling-stroke"  transform=" translate(-37.82, -1.54)" d="M 0 3.08721 L 0 0 L 75.63704 0 L 75.63704 3.08721 z" stroke-linecap="round" />
</g>
<g transform="matrix(1.48 0 0 1.48 156.55 40.48)" id="jhpNkLhR4d_tJPvSCo_KN"  >
<path style="stroke: none; stroke-width: 1; stroke-dasharray: none; stroke-linecap: butt; stroke-dashoffset: 0; stroke-linejoin: miter; stroke-miterlimit: 4; fill: rgb(128,128,128); fill-rule: nonzero; opacity: 1;" vector-effect="non-scaling-stroke"  transform=" translate(-37.82, -1.54)" d="M 0 3.08721 L 0 0 L 75.63704 0 L 75.63704 3.08721 z" stroke-linecap="round" />
</g>
<g transform="matrix(1.27 0 0 1.27 269.2 86.69)" id="vLXU_4xk1oOnQRxynyrI0"  >
<path style="stroke: none; stroke-width: 1; stroke-dasharray: none; stroke-linecap: butt; stroke-dashoffset: 0; stroke-linejoin: miter; stroke-miterlimit: 4; fill: rgb(128,128,128); fill-rule: nonzero; opacity: 1;" vector-effect="non-scaling-stroke"  transform=" translate(-13.31, -1.84)" d="M 0 3.68815 L 0 0 L 26.61292 0 L 26.61292 3.68815 z" stroke-linecap="round" />
</g>
<g transform="matrix(1.65 0 0 1.48 261.86 97.94)" id="8hkLykf3Dj65tPzVTnC2X"  >
<path style="stroke: none; stroke-width: 1; stroke-dasharray: none; stroke-linecap: butt; stroke-dashoffset: 0; stroke-linejoin: miter; stroke-miterlimit: 4; fill: rgb(128,128,128); fill-rule: nonzero; opacity: 1;" vector-effect="non-scaling-stroke"  transform=" translate(0, 0)" d="M -18.52335 1.54361 L -18.52335 -1.5435999999999999 L 18.52335 -1.5435999999999999 L 18.52335 1.54361 z" stroke-linecap="round" />
</g>
<g transform="matrix(2.14 0 0 1.48 164.67 132.04)" id="7g4aMU9dHGdORNSEaq0DX"  >
<path style="stroke: none; stroke-width: 1; stroke-dasharray: none; stroke-linecap: butt; stroke-dashoffset: 0; stroke-linejoin: miter; stroke-miterlimit: 4; fill: rgb(128,128,128); fill-rule: nonzero; opacity: 1;" vector-effect="non-scaling-stroke"  transform=" translate(0, 0)" d="M -18.52335 1.54361 L -18.52335 -1.5435999999999999 L 18.52335 -1.5435999999999999 L 18.52335 1.54361 z" stroke-linecap="round" />
</g>
<g transform="matrix(1.13 0 0 1.48 424.63 219.47)" id="ZaBrAHYIcRubr0klHj8il"  >
<path style="stroke: none; stroke-width: 1; stroke-dasharray: none; stroke-linecap: butt; stroke-dashoffset: 0; stroke-linejoin: miter; stroke-miterlimit: 4; fill: rgb(128,128,128); fill-rule: nonzero; opacity: 1;" vector-effect="non-scaling-stroke"  transform=" translate(-37.82, -1.54)" d="M 0 3.08721 L 0 0 L 75.63704 0 L 75.63704 3.08721 z" stroke-linecap="round" />
</g>
<g transform="matrix(1.28 0 0 1.48 438.65 274.86)" id="oOe8x1EJN3XngywNm8VvW"  >
<path style="stroke: none; stroke-width: 1; stroke-dasharray: none; stroke-linecap: butt; stroke-dashoffset: 0; stroke-linejoin: miter; stroke-miterlimit: 4; fill: rgb(128,128,128); fill-rule: nonzero; opacity: 1;" vector-effect="non-scaling-stroke"  transform=" translate(-37.82, -1.54)" d="M 0 3.08721 L 0 0 L 75.63704 0 L 75.63704 3.08721 z" stroke-linecap="round" />
</g>
<g transform="matrix(1.48 0 0 1.46 353.01 274.65)" id="JMM_QgiuHRejYpjNED6Xj"  >
<path style="stroke: none; stroke-width: 1; stroke-dasharray: none; stroke-linecap: butt; stroke-dashoffset: 0; stroke-linejoin: miter; stroke-miterlimit: 4; fill: rgb(128,128,128); fill-rule: nonzero; opacity: 1;" vector-effect="non-scaling-stroke"  transform=" translate(-18.52, -1.54)" d="M 0 3.08721 L 0 0 L 37.0467 0 L 37.0467 3.08721 z" stroke-linecap="round" />
</g>
<g transform="matrix(1.27 0 0 1.27 20.35 208.35)" id="GULUUNeG2WSCFfYqi01WI"  >
<path style="stroke: none; stroke-width: 1; stroke-dasharray: none; stroke-linecap: butt; stroke-dashoffset: 0; stroke-linejoin: miter; stroke-miterlimit: 4; fill: rgb(0,139,255); fill-rule: nonzero; opacity: 1;" vector-effect="non-scaling-stroke"  transform=" translate(-13.31, -1.84)" d="M 0 3.68815 L 0 0 L 26.61292 0 L 26.61292 3.68815 z" stroke-linecap="round" />
</g>
<g transform="matrix(9.46 0 0 1.27 302.66 285.11)" id="ekK49rG5JvOXD_p3RejI7"  >
<path style="stroke: none; stroke-width: 1; stroke-dasharray: none; stroke-linecap: butt; stroke-dashoffset: 0; stroke-linejoin: miter; stroke-miterlimit: 4; fill: rgb(128,128,128); fill-rule: nonzero; opacity: 1;" vector-effect="non-scaling-stroke"  transform=" translate(-13.31, -1.84)" d="M 0 3.68815 L 0 0 L 26.61292 0 L 26.61292 3.68815 z" stroke-linecap="round" />
</g>
<g transform="matrix(1.27 0 0 1.27 235.89 40.42)" id="izBstWemwp-0FuQJb9Ohh"  >
<path style="stroke: none; stroke-width: 1; stroke-dasharray: none; stroke-linecap: butt; stroke-dashoffset: 0; stroke-linejoin: miter; stroke-miterlimit: 4; fill: rgb(247,152,8); fill-rule: nonzero; opacity: 1;" vector-effect="non-scaling-stroke"  transform=" translate(-13.31, -1.84)" d="M 0 3.68815 L 0 0 L 26.61292 0 L 26.61292 3.68815 z" stroke-linecap="round" />
</g>
<g transform="matrix(1.45 0 0 1.48 90.88 108.67)" id="5XEqYxv-KYikg_mcgfZyy"  >
<path style="stroke: none; stroke-width: 1; stroke-dasharray: none; stroke-linecap: butt; stroke-dashoffset: 0; stroke-linejoin: miter; stroke-miterlimit: 4; fill: rgb(128,128,128); fill-rule: nonzero; opacity: 1;" vector-effect="non-scaling-stroke"  transform=" translate(-18.52, -1.54)" d="M 0 3.08721 L 0 0 L 37.0467 0 L 37.0467 3.08721 z" stroke-linecap="round" />
</g>
<g transform="matrix(2.7 0 0 1.27 56.58 403.98)" id="mVdbZCAOcm4r1TnfDXvrX"  >
<path style="stroke: none; stroke-width: 1; stroke-dasharray: none; stroke-linecap: butt; stroke-dashoffset: 0; stroke-linejoin: miter; stroke-miterlimit: 4; fill: rgb(128,128,128); fill-rule: nonzero; opacity: 1;" vector-effect="non-scaling-stroke"  transform=" translate(-13.31, -1.84)" d="M 0 3.68815 L 0 0 L 26.61292 0 L 26.61292 3.68815 z" stroke-linecap="round" />
</g>
<g transform="matrix(1.97 0 0 1.48 94.07 393.19)" id="9gom5KuW5g-IaRZ9NDYS-"  >
<path style="stroke: none; stroke-width: 1; stroke-dasharray: none; stroke-linecap: butt; stroke-dashoffset: 0; stroke-linejoin: miter; stroke-miterlimit: 4; fill: rgb(128,128,128); fill-rule: nonzero; opacity: 1;" vector-effect="non-scaling-stroke"  transform=" translate(-37.82, -1.54)" d="M 0 3.08721 L 0 0 L 75.63704 0 L 75.63704 3.08721 z" stroke-linecap="round" />
</g>
<g transform="matrix(0.6 0 0 1.48 467.73 285.17)" id="1_T7Ry1OfsA--JM9nh76Q"  >
<path style="stroke: none; stroke-width: 1; stroke-dasharray: none; stroke-linecap: butt; stroke-dashoffset: 0; stroke-linejoin: miter; stroke-miterlimit: 4; fill: rgb(128,128,128); fill-rule: nonzero; opacity: 1;" vector-effect="non-scaling-stroke"  transform=" translate(-54.41, -1.54)" d="M 0 3.08721 L 0 0 L 108.82474 0 L 108.82474 3.08721 z" stroke-linecap="round" />
</g>
<g transform="matrix(1.08 0 0 1.48 253.07 208.66)" id="xg8l0gcV8kZbckd7hDNw7"  >
<path style="stroke: none; stroke-width: 1; stroke-dasharray: none; stroke-linecap: butt; stroke-dashoffset: 0; stroke-linejoin: miter; stroke-miterlimit: 4; fill: rgb(128,128,128); fill-rule: nonzero; opacity: 1;" vector-effect="non-scaling-stroke"  transform=" translate(-37.82, -1.54)" d="M 0 3.08721 L 0 0 L 75.63704 0 L 75.63704 3.08721 z" stroke-linecap="round" />
</g>
<g transform="matrix(2.28 0 0 1.48 138.08 97.95)" id="vqDQHdxzM9HWKPgev1hPe"  >
<path style="stroke: none; stroke-width: 1; stroke-dasharray: none; stroke-linecap: butt; stroke-dashoffset: 0; stroke-linejoin: miter; stroke-miterlimit: 4; fill: rgb(128,128,128); fill-rule: nonzero; opacity: 1;" vector-effect="non-scaling-stroke"  transform=" translate(-37.82, -1.54)" d="M 0 3.08721 L 0 0 L 75.63704 0 L 75.63704 3.08721 z" stroke-linecap="round" />
</g>
<g transform="matrix(1.66 0 0 1.48 171.52 229.84)" id="8q4Vx6aeTEYlfd1LxIZEe"  >
<path style="stroke: none; stroke-width: 1; stroke-dasharray: none; stroke-linecap: butt; stroke-dashoffset: 0; stroke-linejoin: miter; stroke-miterlimit: 4; fill: rgb(128,128,128); fill-rule: nonzero; opacity: 1;" vector-effect="non-scaling-stroke"  transform=" translate(-54.41, -1.54)" d="M 0 3.08721 L 0 0 L 108.82474 0 L 108.82474 3.08721 z" stroke-linecap="round" />
</g>
<g transform="matrix(1.37 0 0 1.48 192.7 51.62)" id="Wi31mwK-ar9mSxKG6kgAo"  >
<path style="stroke: none; stroke-width: 1; stroke-dasharray: none; stroke-linecap: butt; stroke-dashoffset: 0; stroke-linejoin: miter; stroke-miterlimit: 4; fill: rgb(128,128,128); fill-rule: nonzero; opacity: 1;" vector-effect="non-scaling-stroke"  transform=" translate(-37.82, -1.54)" d="M 0 3.08721 L 0 0 L 75.63704 0 L 75.63704 3.08721 z" stroke-linecap="round" />
</g>
<g transform="matrix(1.48 0 0 1.48 165.11 86.75)" id="OmhQXuHT_HEDqR_mihXg0"  >
<path style="stroke: none; stroke-width: 1; stroke-dasharray: none; stroke-linecap: butt; stroke-dashoffset: 0; stroke-linejoin: miter; stroke-miterlimit: 4; fill: rgb(128,128,128); fill-rule: nonzero; opacity: 1;" vector-effect="non-scaling-stroke"  transform=" translate(-54.41, -1.54)" d="M 0 3.08721 L 0 0 L 108.82474 0 L 108.82474 3.08721 z" stroke-linecap="round" />
</g>
<g transform="matrix(0.83 0 0 1.48 156.55 467.28)" id="g06rub5Ze4uzsgcyta5yU"  >
<path style="stroke: none; stroke-width: 1; stroke-dasharray: none; stroke-linecap: butt; stroke-dashoffset: 0; stroke-linejoin: miter; stroke-miterlimit: 4; fill: rgb(128,128,128); fill-rule: nonzero; opacity: 1;" vector-effect="non-scaling-stroke"  transform=" translate(-54.41, -1.54)" d="M 0 3.08721 L 0 0 L 108.82474 0 L 108.82474 3.08721 z" stroke-linecap="round" />
</g>
<g transform="matrix(1.48 0 0 1.48 76.08 467.28)" id="ahbAzV_U9lkt7hhR3dwXs"  >
<path style="stroke: none; stroke-width: 1; stroke-dasharray: none; stroke-linecap: butt; stroke-dashoffset: 0; stroke-linejoin: miter; stroke-miterlimit: 4; fill: rgb(128,128,128); fill-rule: nonzero; opacity: 1;" vector-effect="non-scaling-stroke"  transform=" translate(-18.52, -1.54)" d="M 0 3.08721 L 0 0 L 37.0467 0 L 37.0467 3.08721 z" stroke-linecap="round" />
</g>
<g transform="matrix(2.36 0 0 1.48 127.04 456.54)" id="szkOJ57L1PsbMRqo2uizZ"  >
<path style="stroke: none; stroke-width: 1; stroke-dasharray: none; stroke-linecap: butt; stroke-dashoffset: 0; stroke-linejoin: miter; stroke-miterlimit: 4; fill: rgb(128,128,128); fill-rule: nonzero; opacity: 1;" vector-effect="non-scaling-stroke"  transform=" translate(0, 0)" d="M -37.81852 1.5436 L -37.81852 -1.5436099999999997 L 37.81852 -1.5436099999999997 L 37.81852 1.5436 z" stroke-linecap="round" />
</g>
<g transform="matrix(1.87 0 0 1.48 38.19 229.9)" id="55R0gDTT_FPLf26HsW6Su"  >
<path style="stroke: none; stroke-width: 1; stroke-dasharray: none; stroke-linecap: butt; stroke-dashoffset: 0; stroke-linejoin: miter; stroke-miterlimit: 4; fill: rgb(128,128,128); fill-rule: nonzero; opacity: 1;" vector-effect="non-scaling-stroke"  transform=" translate(-18.52, -1.54)" d="M 0 3.08721 L 0 0 L 37.0467 0 L 37.0467 3.08721 z" stroke-linecap="round" />
</g>
<g transform="matrix(1.48 0 0 1.48 106.22 51.62)" id="jzptUh7u4q60E-qbSv_Ll"  >
<path style="stroke: none; stroke-width: 1; stroke-dasharray: none; stroke-linecap: butt; stroke-dashoffset: 0; stroke-linejoin: miter; stroke-miterlimit: 4; fill: rgb(128,128,128); fill-rule: nonzero; opacity: 1;" vector-effect="non-scaling-stroke"  transform=" translate(-18.52, -1.54)" d="M 0 3.08721 L 0 0 L 37.0467 0 L 37.0467 3.08721 z" stroke-linecap="round" />
</g>
<g transform="matrix(0.85 0 0 1.48 214.55 29.44)" id="i_TcLyjPt82dPuOdyMkNZ"  >
<path style="stroke: none; stroke-width: 1; stroke-dasharray: none; stroke-linecap: butt; stroke-dashoffset: 0; stroke-linejoin: miter; stroke-miterlimit: 4; fill: rgb(128,128,128); fill-rule: nonzero; opacity: 1;" vector-effect="non-scaling-stroke"  transform=" translate(-18.52, -1.54)" d="M 0 3.08721 L 0 0 L 37.0467 0 L 37.0467 3.08721 z" stroke-linecap="round" />
</g>
<g transform="matrix(1.57 0 0 1.48 231.4 274.86)" id="c41ThrpTuRmRhqdT-0REv"  >
<path style="stroke: none; stroke-width: 1; stroke-dasharray: none; stroke-linecap: butt; stroke-dashoffset: 0; stroke-linejoin: miter; stroke-miterlimit: 4; fill: rgb(128,128,128); fill-rule: nonzero; opacity: 1;" vector-effect="non-scaling-stroke"  transform=" translate(-54.41, -1.54)" d="M 0 3.08721 L 0 0 L 108.82474 0 L 108.82474 3.08721 z" stroke-linecap="round" />
</g>
<g transform="matrix(1.38 0 0 1.27 573.01 554.16)" id="F7zyMItrMuslVn-MgGMjI"  >
<path style="stroke: none; stroke-width: 1; stroke-dasharray: none; stroke-linecap: butt; stroke-dashoffset: 0; stroke-linejoin: miter; stroke-miterlimit: 4; fill: none; fill-rule: nonzero; opacity: 1;" vector-effect="non-scaling-stroke"  transform=" translate(-840.83, -561.3)" d="M 866.14147 532.28381 C 862.43532 532.13202 858.83866 532.11406 855.3716400000001 532.23391 C 834.0153600000001 532.97206 819.7901700000001 539.0908000000001 816.3435700000001 549.02191 C 812.8969700000001 558.95302 820.2733100000002 572.5685900000001 836.5808100000002 586.37804 Q 838.9998100000001 588.4264400000001 841.6233900000002 590.4415100000001 C 841.4837400000002 568.5153900000001 850.3466400000002 547.4923000000001 866.1414700000003 532.2838300000001 z" stroke-linecap="round" />
</g>
</svg>