<?xml version="1.0" encoding="UTF-8" standalone="no"?>
<svg
   version="1.1"
   width="861.34283"
   height="648.67938"
   viewBox="0 0 861.34285 648.67936"
   xml:space="preserve"
   id="svg132"
   sodipodi:docname="landingPERSON.svg"
   xmlns:inkscape="http://www.inkscape.org/namespaces/inkscape"
   xmlns:sodipodi="http://sodipodi.sourceforge.net/DTD/sodipodi-0.dtd"
   xmlns="http://www.w3.org/2000/svg"
   xmlns:svg="http://www.w3.org/2000/svg"><sodipodi:namedview
   id="namedview134"
   pagecolor="#505050"
   bordercolor="#ffffff"
   borderopacity="1"
   inkscape:showpageshadow="0"
   inkscape:pageopacity="0"
   inkscape:pagecheckerboard="1"
   inkscape:deskcolor="#505050"
   showgrid="false" />
<desc
   id="desc2">Created with Fabric.js 4.6.0</desc>
<defs
   id="defs4" />

<g
   inkscape:groupmode="layer"
   id="layer2"
   inkscape:label="Layer 1"><g
     transform="matrix(0.99683258,0,0,1,429.19589,324.34)"
     id="VzRBoU-DCD_tvBeZgNS6e">
<path
   id="path6"
   style="opacity:1;fill:#fdfdfd;fill-rule:nonzero;stroke:none;stroke-width:1;stroke-linecap:butt;stroke-linejoin:miter;stroke-miterlimit:4;stroke-dasharray:none;stroke-dashoffset:0"
   d="m -430.67134,-324.34 v 648.67969 h 858.49461 2.84887 2.84886 V -324.34 h -2.84886 -2.84887 z m 618.31785,1.06836 c 9.49712,0.51364 18.90924,3.22 27.80095,6.58789 39.34263,14.90583 127.01583,101.83757 165.67068,134.87333 4.99559,4.26941 9.19141,7.61978 12.38222,9.77445 16.69873,12.16935 35.49464,37.05457 34.24278,53.44127 v 0 c -0.0945,20.150133 -24.47657,43.230578 -49.05989,45.483216 -27.29292,2.508647 -53.74558,-8.68691 -78.13225,-20.523438 -24.38665,-11.836528 -49.27618,-24.886248 -76.64903,-26.529298 -27.37233,-1.64282 -58.08128,12.16003 -64.56975,37.298829 -5.64288,21.874239 8.6997,44.447204 27.38557,58.44336 14.6263,10.958399 31.79316,18.2549655 48.37392,26.4609373 4.60442,2.2717177 9.16191,4.621645 13.6056,7.1328125 11.37646,6.4417532 22.01146,13.9833852 31.73136,22.5039062 10.20373,8.930611 19.36136,18.867456 27.31896,29.640625 6.35006,8.584111 11.88901,17.677148 16.55634,27.173828 0.7112,1.450599 1.40302,2.921111 2.07298,4.41211 0.63454,1.425508 1.24904,2.869776 1.83197,4.328125 7.61048,18.913027 10.5767,40.108057 0.85427,57.763667 -9.69776,17.60782 -30.70469,28.03264 -51.67932,29.47852 -12.13206,0.68283 -24.28867,-0.8313 -35.81657,-4.46289 -8.47808,-2.59791 -16.68672,-5.92609 -24.51907,-9.94141 -36.3139,-18.38836 -65.06472,-47.54576 -91.3205,-77.521481 C 99.478259,62.573079 74.763273,31.011998 43.600414,5.5682031 12.439295,-19.881191 -26.611952,-39.122484 -67.828701,-38.830234 c -41.214709,0.286699 -83.701959,23.978099 -95.407669,61.257812 -17.06221,-27.7360821 -28.60126,-59.353531 -27.07795,-91.386719 1.52332,-32.033189 17.53603,-64.355309 46.09522,-81.746089 39.32707,-23.94303 93.493836,-14.64042 131.810077,10.72851 12.50357778,8.39219 23.987778,18.0591 34.245188,28.82617 5.981764,6.18962 11.651585,12.688606 17.07557,19.410159 1.336318,1.649089 2.667315,3.314016 3.971564,4.996094 0.892419,1.137159 1.777314,2.282538 2.654893,3.435547 11.000329,14.424896 21.08475,29.599384 30.957431,44.636719 24.645897,37.5381222 49.933987,76.193654 87.486087,102.548828 7.73687,5.428404 18.5323,10.31837 26.45881,5.134766 6.87845,-4.501606 7.17308,-13.967518 5.6076,-21.72461 C 190.2284,18.547012 169.23403,-5.2707891 146.93161,-25.601719 124.6295,-45.932518 99.942184,-64.572053 83.090731,-89.138828 66.238988,-113.70564 58.537569,-146.50287 73.297994,-172.23258 c 12.720878,-22.17251 40.090396,-34.61019 66.805346,-35.18945 26.71264,-0.57377 52.66714,9.2226 75.26771,22.67383 22.59852,13.45672 42.47122,30.53119 63.20997,46.42968 12.50147,9.59168 29.95543,19.10926 43.57945,10.98829 11.50767,-6.863 12.40519,-23.3387 5.54686,-34.43164 -6.85832,-11.09294 -19.09908,-18.06311 -30.83399,-24.56446 -36.43403,-20.19224 -72.8698,-40.38372 -109.3052,-60.57226 -11.17819,-6.18858 -22.60032,-12.57513 -30.85163,-22.01172 -8.25365,-9.4311 -12.83289,-22.68609 -8.28405,-34.13867 4.48797,-11.28618 17.02173,-18.4536 29.70346,-19.94922 3.16835,-0.37305 6.34489,-0.44465 9.51059,-0.27344 z"
   sodipodi:nodetypes="cccccccccscsccccsccccccccccccccccccsccccccccccsccccccscccccs" />
</g></g><g
   transform="translate(124.12,241.81)"
   id="kmsU-c8GYndd7OQZqFujV">
<path
   style="opacity:1;fill:#fdfdfd;fill-rule:nonzero;stroke:none;stroke-width:1;stroke-linecap:butt;stroke-linejoin:miter;stroke-miterlimit:4;stroke-dasharray:none;stroke-dashoffset:0"
   vector-effect="non-scaling-stroke"
   d="m -5.35174,-97.22937 16.157,10.64925 18.91194,4.43 c 0,0 14.99907,107.19866 22.36959,113.62868 7.37052,6.43002 1.16,7.03958 3.15737,15.909 1.99737,8.86942 6.61965,27.01462 6.61965,27.01462 -44.89679,27.82945 -85.006,31.22731 -119.22623,4.57454 -1.10073,-3.61901 0.46596,-7.51631 3.76528,-9.36653 5.786,-3.59436 -6.76409,-17.67495 -2.02758,-20.495 4.73651,-2.82005 -3.63329,-23.91315 -3.63329,-23.91315 l 1.46049,-45.29872 -4.0663,-6.94806 5.72828,-44.60031 14.76652,-6.56237 5.05588,-14.98693 z"
   stroke-linecap="round"
   id="path9" />
</g>
<g
   transform="translate(99.17,106.6)"
   id="1Hcm8bgk97XefOEWSmGGD">
<path
   style="opacity:1;fill:#ffb8b8;fill-rule:nonzero;stroke:none;stroke-width:1;stroke-linecap:butt;stroke-linejoin:miter;stroke-miterlimit:4;stroke-dasharray:none;stroke-dashoffset:0"
   vector-effect="non-scaling-stroke"
   transform="translate(-32.12,-32.12)"
   d="M 0,32.11879 C 0,14.38007 14.38007,0 32.11879,0 c 17.73872,0 32.11879,14.38007 32.11879,32.11879 0,17.73872 -14.38007,32.11879 -32.11879,32.11879 C 14.38007,64.23758 0,49.85751 0,32.11879 Z"
   stroke-linecap="round"
   id="path12" />
</g>
<g
   transform="translate(93.72,95.64)"
   id="W2iaF3z9cx84QY3UmTDWo">
<path
   style="opacity:1;fill:#262626;fill-rule:nonzero;stroke:none;stroke-width:1;stroke-linecap:butt;stroke-linejoin:miter;stroke-miterlimit:4;stroke-dasharray:none;stroke-dashoffset:0"
   vector-effect="non-scaling-stroke"
   d="m -33.00249,-10.27711 c 3.60658,-5.57961 -2.06463,-4.34479 4.49643,-3.29985 1.24479,-8.53507 6.69198,-10.74046 14.83789,-13.57613 8.14591,-2.83567 29.64825,-8.91288 35.92398,-2.99578 2.0593,-1.44989 5.35074,1.98274 7.65653,2.99578 2.25819,1.02677 0.89143,0.84245 2.38239,2.82506 7.67079,9.56595 3.90006,5.80376 -0.90322,17.08547 0.80185,-2.915 1.88289,0.65413 -1.06881,0 -2.95144,-0.65414 -5.29065,-4.10112 -8.28382,-4.52709 -3.83627,-0.54587 -10.75909,-1.30647 -14.60142,-1.80731 -3.22918,-0.42092 -9.397,-2.25645 -12.54599,-1.42652 -3.149,0.82981 -13.48227,11.08522 -16.71605,10.70124 -3.234,-0.384 10.02553,14.37711 10.08143,23.00909 0.01062,1.63584 -0.32631,3.73609 -1.925,4.08314 -1.96872,0.42749 -3.10954,-2.28971 -4.9834,-3.0301 -1.79502,-0.51447 -3.67502,0.48525 -4.25212,2.26113 -0.47916,1.76236 -0.07721,3.64764 1.07909,5.06131 1.15182,1.38125 2.51918,2.5674 4.04925,3.51261 l -0.77175,0.64187 c -1.28373,1.69591 -3.94655,1.7694 -5.7969,0.72015 -1.7693,-1.19831 -3.20218,-2.82982 -4.16206,-4.739 -3.4232,-5.69369 -6.426,-11.76023 -7.63408,-18.29308 -1.20808,-6.53285 -0.46868,-13.62238 3.13765,-19.20199 z"
   stroke-linecap="round"
   id="path15" />
</g>
<g
   transform="translate(79.77,260.13)"
   id="yIIOJW5enPU04TU1dJvH5">
<path
   style="opacity:1;fill:#242424;fill-rule:nonzero;stroke:none;stroke-width:1;stroke-linecap:butt;stroke-linejoin:miter;stroke-miterlimit:4;stroke-dasharray:none;stroke-dashoffset:0"
   vector-effect="non-scaling-stroke"
   d="m 6.31251,-107.62692 -41.80796,26 h 4.80796 l 16,102 c 0,0 -24.30892,92.71612 14,87 38.30892,-5.71612 36.16111,-89.03846 36.16111,-89.03846 z"
   stroke-linecap="round"
   id="path18" />
</g>
<g
   transform="translate(93.7,286.82)"
   id="SBfzHDJlvC_Jqun7SD6go">
<path
   style="opacity:1;fill:#ffb8b8;fill-rule:nonzero;stroke:none;stroke-width:1;stroke-linecap:butt;stroke-linejoin:miter;stroke-miterlimit:4;stroke-dasharray:none;stroke-dashoffset:0"
   vector-effect="non-scaling-stroke"
   transform="translate(-296.49,-411.5)"
   d="m 322.23542,422.083 c -2.91319,1.72529 -6.44095,2.0716 -9.63403,0.94574 -3.19308,-1.12586 -5.72347,-3.60823 -6.91028,-6.77916 l -40.64366,0.98165 11.20149,-17.91273 36.87863,1.814 c 5.58165,-1.67759 11.5359,1.08473 13.85956,6.4298 2.32367,5.34506 0.28226,11.58334 -4.75173,14.5207 z"
   stroke-linecap="round"
   id="path21" />
</g>
<g
   transform="translate(53.53,235.32)"
   id="gL9sl_Kfiwkd3PsZ2nm1K">
<path
   style="opacity:1;fill:#242424;fill-rule:nonzero;stroke:none;stroke-width:1;stroke-linecap:butt;stroke-linejoin:miter;stroke-miterlimit:4;stroke-dasharray:none;stroke-dashoffset:0"
   vector-effect="non-scaling-stroke"
   d="M 17.27903,-38.05422 6.11112,-66.18435 c 0,0 -22.15807,7.15346 -25.01543,18.20857 C -41.3957,-19.21717 -49.29096,13.79077 -52.5442,51.5 -23.18049,62.59012 13.86328,65.20876 52.54419,66.18435 l -8,-30 -51.19064,-10.79264 z"
   stroke-linecap="round"
   id="path24" />
</g>
<g
   transform="translate(130.9,596.71)"
   id="o4VjBT9XvPWdhXBTN5Rzo">
<path
   style="opacity:1;fill:#ffb8b8;fill-rule:nonzero;stroke:none;stroke-width:1;stroke-linecap:butt;stroke-linejoin:miter;stroke-miterlimit:4;stroke-dasharray:none;stroke-dashoffset:0"
   vector-effect="non-scaling-stroke"
   transform="translate(-164.36,-595.73)"
   d="m 151.957,628.165 16.814,-10e-4 8,-64.861 -24.818,0.002 z"
   stroke-linecap="round"
   id="path27" />
</g>
<g
   transform="translate(55.36,587.75)"
   id="YpVnklJd5kOIp26u2Na7l">
<path
   style="opacity:1;fill:#ffb8b8;fill-rule:nonzero;stroke:none;stroke-width:1;stroke-linecap:butt;stroke-linejoin:miter;stroke-miterlimit:4;stroke-dasharray:none;stroke-dashoffset:0"
   vector-effect="non-scaling-stroke"
   transform="translate(-88.82,-586.77)"
   d="m 68.581,615.998 16.264,4.27 24.213,-60.701 -24.004,-6.303 z"
   stroke-linecap="round"
   id="path30" />
</g>
<g
   transform="matrix(1.2,0,0,0.95,54.07,631.5)"
   id="eRDRiYtbTkQeLDG0U-LM2">
<path
   style="opacity:1;fill:#242424;fill-rule:nonzero;stroke:none;stroke-width:1;stroke-linecap:butt;stroke-linejoin:miter;stroke-miterlimit:4;stroke-dasharray:none;stroke-dashoffset:0"
   vector-effect="non-scaling-stroke"
   d="m -25.42246,4.13748 50.014,13.13347 0.16612,-0.6325 C 27.58046,5.88748 21.15421,-5.11642 10.40359,-7.94055 l -0.0012,-3.2e-4 -7.31533,-9.33008 -18.86557,2.45516 -4.36588,-1.14648 z"
   stroke-linecap="round"
   id="path33" />
</g>
<g
   transform="translate(114.26,453.08)"
   id="4ayRfq-5MPcqYJyjtMR85">
<path
   style="opacity:1;fill:#242424;fill-rule:nonzero;stroke:none;stroke-width:1;stroke-linecap:butt;stroke-linejoin:miter;stroke-miterlimit:4;stroke-dasharray:none;stroke-dashoffset:0"
   vector-effect="non-scaling-stroke"
   d="m -24.2241,-134.31431 c -4.062,5.07751 -18.68228,20.77727 -18.68228,20.77727 0,0 -12.65298,99.24148 -9.60646,104.31899 3.04652,5.07751 12.65298,-107.47043 9.60646,-100.36196 -3.04652,7.10847 -25.41158,178.3661 -25.41158,178.3661 -17.26354,14.217 0,0 0,0 l -8.60488,57.33945 c 2.031,6.093 29.95445,7.65271 34.01646,6.63719 4.06201,-1.01552 43.66653,-144.20125 43.66653,-144.20125 0,0 -2.031,138.10834 -2.031,144.20136 0,6.09302 27.41857,3.0465 33.51158,3.0465 6.09301,0 44.68212,-248.79814 44.68212,-248.79814 v -14.217 l -5.07751,-7.10851 c 0,0 -92.00743,-5.07751 -96.06944,0 z"
   stroke-linecap="round"
   id="path36" />
</g>
<g
   transform="translate(245.76,343.5)"
   id="_5I-4-cISf4rEwNMlAHnE">
<path
   style="opacity:1;fill:#ffb8b8;fill-rule:nonzero;stroke:none;stroke-width:1;stroke-linecap:butt;stroke-linejoin:miter;stroke-miterlimit:4;stroke-dasharray:none;stroke-dashoffset:0"
   vector-effect="non-scaling-stroke"
   transform="translate(-448.55,-468.18)"
   d="m 459.3879,492.40273 c -3.26574,-0.89346 -5.96799,-3.18756 -7.37962,-6.265 -1.41164,-3.07743 -1.38764,-6.62208 0.0655,-9.68012 l -28.97124,-28.52261 20.66168,-4.40845 24.344,27.76138 c 5.08718,2.84414 7.24311,9.0437 5.01834,14.43062 -2.22477,5.38692 -8.12703,8.25849 -13.73861,6.6841 z"
   stroke-linecap="round"
   id="path39" />
</g>
<g
   transform="translate(164.48,254.83)"
   id="G4KLqLYPJSgB0xYvzF20F">
<path
   style="opacity:1;fill:#242424;fill-rule:nonzero;stroke:none;stroke-width:1;stroke-linecap:butt;stroke-linejoin:miter;stroke-miterlimit:4;stroke-dasharray:none;stroke-dashoffset:0"
   vector-effect="non-scaling-stroke"
   transform="translate(-367.27,-379.51)"
   d="m 327.8667,274.18712 26.64115,8.8716 c 0,0 29.47047,-3.11176 30.66466,40.75832 1.19419,43.87008 -4.29794,67.41167 -4.29794,67.41167 0,0 61.30315,123.27829 -5.10236,86.86829 l -19.40551,-76.40988 -20,-120 z"
   stroke-linecap="round"
   id="path42" />
</g>
<g
   transform="translate(197.08,260.71)"
   id="VAKn0eDMRqGI7jTsK_4af">
<path
   style="opacity:1;fill:#242424;fill-rule:nonzero;stroke:none;stroke-width:1;stroke-linecap:butt;stroke-linejoin:miter;stroke-miterlimit:4;stroke-dasharray:none;stroke-dashoffset:0"
   vector-effect="non-scaling-stroke"
   d="m -45.28843,-14.75626 13.81877,-1.90862 c 0,0 1.33426,20.8342 7.94429,23.99172 6.61003,3.15752 4.38173,3.67716 5.16118,7.01962 0.77945,3.34246 -5.8779,12.60375 -0.64184,14.90694 5.23606,2.30319 51,60 51,60 L 57.36139,66.80148 C 55.50575,61.77335 20.9246,12.65712 20.36472,7.32684 c -0.70457,-8.05889 -1.88999,3.90551 -4.89775,1.08269 -3.00776,-2.82282 26.58331,62.33918 25.0244,55.65425 -1.55891,-6.68493 9.0996,11.14153 6.50142,0 -2.59818,-11.14153 -65.19928,-138.45795 -66.42348,-148.7451 -1.2242,-10.28715 -37.9307,0 -37.9307,0 l 24.76417,24.36594 z"
   stroke-linecap="round"
   id="path45" />
</g>
<g
   transform="matrix(1.24,-0.26,0.21,0.98,142.39,637.99)"
   id="AVd_SrXDsKxHJ2holtyjv">
<path
   style="opacity:1;fill:#242424;fill-rule:nonzero;stroke:none;stroke-width:1;stroke-linecap:butt;stroke-linejoin:miter;stroke-miterlimit:4;stroke-dasharray:none;stroke-dashoffset:0"
   vector-effect="non-scaling-stroke"
   d="m -25.42246,4.13748 50.014,13.13347 0.16612,-0.6325 C 27.58046,5.88748 21.15421,-5.11642 10.40359,-7.94055 l -0.0012,-3.2e-4 -7.31533,-9.33008 -18.86557,2.45516 -4.36588,-1.14648 z"
   stroke-linecap="round"
   id="path48" />
</g>
<g
   transform="translate(269.37,382)"
   id="7u-KDOAlQnfuXI5gMTku_">
<path
   style="opacity:1;fill:#e6e6e6;fill-rule:nonzero;stroke:none;stroke-width:1;stroke-linecap:butt;stroke-linejoin:miter;stroke-miterlimit:4;stroke-dasharray:none;stroke-dashoffset:0"
   vector-effect="non-scaling-stroke"
   transform="translate(-387.96,-577.25)"
   d="m 348.7962,571.69324 48.51412,-12.97988 4.2716,-1.01288 3.04581,-0.72337 3.54955,-0.83929 0.0284,-0.007 c 0.51578,-0.11768 1.05715,-0.0276 1.507,0.25082 l 18.01367,21.59765 c 0.16301,0.10032 0.30657,0.22926 0.42377,0.3806 0.0484,0.0392 0.0915,0.0845 0.12815,0.13484 0.40483,0.55219 0.50821,1.26967 0.27573,1.91368 -0.23248,0.64401 -0.7703,1.13003 -1.43449,1.29632 l -72.373,16.65523 c -0.76539,0.17324 -1.56227,-0.1082 -2.04911,-0.72369 l -0.73444,-0.95155 -4.005,-19.28585 -0.28495,-2.50426 c -0.18172,-0.23164 -0.30994,-0.5006 -0.37549,-0.78762 -0.24225,-1.07877 0.42445,-2.15273 1.49872,-2.41422 z"
   stroke-linecap="round"
   id="path51" />
</g>
<g
   transform="translate(288.61,377.2)"
   id="2hmSrxihDy9CkSK-qeg8p">
<path
   style="opacity:1;fill:#2f2e41;fill-rule:nonzero;stroke:none;stroke-width:1;stroke-linecap:butt;stroke-linejoin:miter;stroke-miterlimit:4;stroke-dasharray:none;stroke-dashoffset:0"
   vector-effect="non-scaling-stroke"
   transform="translate(-407.2,-572.45)"
   d="m 406.339,569.9552 c -0.9665,0.2756 -1.52689,1.28219 -1.252,2.24889 l 0.79748,2.80073 3.50092,-0.99686 -0.79749,-2.80073 c -0.27558,-0.96652 -1.2822,-1.52693 -2.24891,-1.25203 z"
   stroke-linecap="round"
   id="path54" />
</g>
<g
   transform="translate(271.73,393.14)"
   id="hOC6n7_GNKm5OVtiaGe_b">
<path
   style="opacity:0.17;fill:#000000;fill-rule:nonzero;stroke:none;stroke-width:1;stroke-linecap:butt;stroke-linejoin:miter;stroke-miterlimit:4;stroke-dasharray:none;stroke-dashoffset:0"
   vector-effect="non-scaling-stroke"
   transform="translate(-390.32,-588.39)"
   d="m 351.96256,596.6835 0.73876,0.95465 c 0.48578,0.61371 1.28016,0.89493 2.04387,0.72353 l 72.37552,-16.6558 c 0.66412,-0.16558 1.20198,-0.65135 1.43412,-1.29523 0.23215,-0.64388 0.12802,-1.36111 -0.27764,-1.91239 -0.035,-0.0512 -0.0776,-0.0968 -0.12633,-0.13526 z"
   stroke-linecap="round"
   id="path57" />
</g>
<g
   transform="translate(281.61,379.19)"
   id="O2I_bbSp7qN2AhMo0lSLd">
<path
   style="opacity:1;fill:#2f2e41;fill-rule:nonzero;stroke:none;stroke-width:1;stroke-linecap:butt;stroke-linejoin:miter;stroke-miterlimit:4;stroke-dasharray:none;stroke-dashoffset:0"
   vector-effect="non-scaling-stroke"
   transform="translate(-400.2,-574.44)"
   d="m 399.33715,571.94892 c -0.9665,0.27559 -1.52689,1.28218 -1.252,2.24888 l 0.79748,2.80074 3.50092,-0.99686 -0.79755,-2.80068 c -0.27556,-0.96651 -1.28214,-1.52694 -2.24885,-1.25208 z"
   stroke-linecap="round"
   id="path60" />
</g>
<g
   transform="matrix(1,0,0,0.68,298.87,337.14)"
   id="uk9jly3qZ-_U-5BNoJWzP">
<path
   style="opacity:1;fill:#e6e6e6;fill-rule:nonzero;stroke:none;stroke-width:1;stroke-linecap:butt;stroke-linejoin:miter;stroke-miterlimit:4;stroke-dasharray:none;stroke-dashoffset:0"
   vector-effect="non-scaling-stroke"
   transform="translate(-417.46,-510.66)"
   d="m 407.81609,555.99683 -1.3093,-92.26487 c -0.0549,-0.5555 0.11306,-1.11006 0.46692,-1.54178 l 9.2739,-19.30128 0.96329,-1.17042 c 0.3581,-0.42812 0.8698,-0.69875 1.42522,-0.7538 l 2.01855,-0.18813 c 1.15791,-0.11381 2.18884,0.73259 2.30267,1.8905 v 0 l 1.81786,97.62365 0.002,0.007 0.90065,9.3997 1.06711,11.1618 0.003,0.0142 1.66577,17.36642 c 0.0633,0.601 -0.14036,1.19949 -0.557,1.63723 -0.4061,0.44337 -0.98338,0.69052 -1.5845,0.67839 l -1.31342,-0.0264 c -0.50376,-0.0131 -0.98674,-0.20351 -1.36383,-0.53779 l -0.73463,-0.66014 -0.34031,-0.31016 -14.00732,-21.653 c -0.39772,-0.35215 -0.64671,-0.84231 -0.69652,-1.37119 z"
   stroke-linecap="round"
   id="path63" />
</g>
<g
   transform="translate(274.61,381.18)"
   id="lQ8HNMN8TvoE2duQVwENg">
<path
   style="opacity:1;fill:#2f2e41;fill-rule:nonzero;stroke:none;stroke-width:1;stroke-linecap:butt;stroke-linejoin:miter;stroke-miterlimit:4;stroke-dasharray:none;stroke-dashoffset:0"
   vector-effect="non-scaling-stroke"
   transform="translate(-393.2,-576.43)"
   d="m 392.33533,573.94263 c -0.9665,0.27559 -1.52689,1.28219 -1.252,2.24889 l 0.79748,2.80073 3.50092,-0.99686 -0.79749,-2.80073 c -0.27558,-0.96652 -1.2822,-1.52693 -2.24891,-1.25203 z"
   stroke-linecap="round"
   id="path66" />
</g>
<g
   transform="matrix(1,0,0,0.68,303.75,337.93)"
   id="ufCTHrIRGVvEj37dOyjGd">
<path
   style="opacity:0.17;fill:#000000;fill-rule:nonzero;stroke:none;stroke-width:1;stroke-linecap:butt;stroke-linejoin:miter;stroke-miterlimit:4;stroke-dasharray:none;stroke-dashoffset:0"
   vector-effect="non-scaling-stroke"
   transform="translate(-422.34,-510.66)"
   d="m 416.251,442.88882 6.26741,136.13588 0.34267,0.306 0.73219,0.65824 c 0.37681,0.33513 0.8602,0.52588 1.36433,0.53835 l 1.31527,0.0264 c 0.60172,0.0101 1.17924,-0.23662 1.58797,-0.67833 0.40873,-0.44171 0.60997,-1.0366 0.55333,-1.63573 L 422.95483,442.67 c -0.11141,-1.15855 -1.1405,-2.0077 -2.29913,-1.89713 l -2.02255,0.19377 c -0.55476,0.0511 -1.06577,0.32285 -1.41837,0.75419 z"
   stroke-linecap="round"
   id="path69" />
</g>
<g
   transform="translate(267.61,383.18)"
   id="uZgzemPvU_RJMmzQ8g8B1">
<path
   style="opacity:1;fill:#2f2e41;fill-rule:nonzero;stroke:none;stroke-width:1;stroke-linecap:butt;stroke-linejoin:miter;stroke-miterlimit:4;stroke-dasharray:none;stroke-dashoffset:0"
   vector-effect="non-scaling-stroke"
   transform="translate(-386.2,-578.43)"
   d="m 385.3335,575.93635 c -0.9665,0.27559 -1.52689,1.28218 -1.252,2.24888 l 0.79748,2.80073 3.50092,-0.99685 -0.79749,-2.80073 c -0.27558,-0.96652 -1.2822,-1.52694 -2.24891,-1.25203 z"
   stroke-linecap="round"
   id="path72" />
</g>
<g
   transform="matrix(1,0,0,0.68,294.82,328.51)"
   id="ylpVd7JKEXm6s9iRE4LTl">
<path
   style="opacity:1;fill:#fdfdfd;fill-rule:nonzero;stroke:none;stroke-width:1;stroke-linecap:butt;stroke-linejoin:miter;stroke-miterlimit:4;stroke-dasharray:none;stroke-dashoffset:0"
   vector-effect="non-scaling-stroke"
   transform="translate(-245.75,-389.35)"
   d="m 249.113,340.929 -8.481,20.935 1.049,62.627 9.182,13.279 z"
   stroke-linecap="round"
   id="path75" />
</g>
<g
   transform="translate(260.6,385.17)"
   id="we5ZgoYEVvxHYC03Mcqd4">
<path
   style="opacity:1;fill:#2f2e41;fill-rule:nonzero;stroke:none;stroke-width:1;stroke-linecap:butt;stroke-linejoin:miter;stroke-miterlimit:4;stroke-dasharray:none;stroke-dashoffset:0"
   vector-effect="non-scaling-stroke"
   transform="translate(-379.19,-580.42)"
   d="m 378.33167,577.93006 c -0.9665,0.27559 -1.52689,1.28219 -1.252,2.24889 l 0.79748,2.80073 3.50092,-0.99686 -0.79749,-2.80073 c -0.27558,-0.96652 -1.2822,-1.52693 -2.24891,-1.25203 z"
   stroke-linecap="round"
   id="path78" />
</g>
<g
   transform="translate(238.13,384.77)"
   id="rZr0uDR5xUV3itHVqYBpN">
<path
   style="opacity:1;fill:#2f2e41;fill-rule:nonzero;stroke:none;stroke-width:1;stroke-linecap:butt;stroke-linejoin:miter;stroke-miterlimit:4;stroke-dasharray:none;stroke-dashoffset:0"
   vector-effect="non-scaling-stroke"
   transform="translate(-356.72,-580.02)"
   d="m 354.38731,571.14074 c -0.9665,0.2756 -1.52689,1.28219 -1.252,2.24889 l 3.73635,15.57119 3.50092,-0.99685 -3.73636,-15.5712 c -0.27558,-0.96652 -1.2822,-1.52693 -2.24891,-1.25203 z"
   stroke-linecap="round"
   id="path81" />
</g>
<g
   transform="translate(253.6,387.16)"
   id="z1U_oOCCDaCQOJDT5Pl7w">
<path
   style="opacity:1;fill:#2f2e41;fill-rule:nonzero;stroke:none;stroke-width:1;stroke-linecap:butt;stroke-linejoin:miter;stroke-miterlimit:4;stroke-dasharray:none;stroke-dashoffset:0"
   vector-effect="non-scaling-stroke"
   transform="translate(-372.19,-582.41)"
   d="m 371.32984,579.92378 c -0.9665,0.27559 -1.52689,1.28218 -1.252,2.24888 l 0.79748,2.80073 3.50092,-0.99685 -0.79749,-2.80074 c -0.27558,-0.96652 -1.2822,-1.52693 -2.24891,-1.25202 z"
   stroke-linecap="round"
   id="path84" />
</g>
<g
   transform="translate(243.66,376.39)"
   id="M6VFZx8EI3zvgAi4Z2Nvo">
<path
   style="opacity:1;fill:#2f2e41;fill-rule:nonzero;stroke:none;stroke-width:1;stroke-linecap:butt;stroke-linejoin:miter;stroke-miterlimit:4;stroke-dasharray:none;stroke-dashoffset:0"
   vector-effect="non-scaling-stroke"
   transform="translate(-362.25,-571.64)"
   d="m 361.38914,569.147 c -0.96649,0.27559 -1.52688,1.28218 -1.252,2.24888 l 0.79748,2.80074 3.50092,-0.99686 -0.79749,-2.80073 c -0.27558,-0.96652 -1.2822,-1.52694 -2.24891,-1.25203 z"
   stroke-linecap="round"
   id="path87" />
</g>
<g
   transform="translate(246.6,389.16)"
   id="xhG9jKv2uSbeBSqFPHOYA">
<path
   style="opacity:1;fill:#2f2e41;fill-rule:nonzero;stroke:none;stroke-width:1;stroke-linecap:butt;stroke-linejoin:miter;stroke-miterlimit:4;stroke-dasharray:none;stroke-dashoffset:0"
   vector-effect="non-scaling-stroke"
   transform="translate(-365.19,-584.41)"
   d="m 364.328,581.91749 c -0.9665,0.27559 -1.52689,1.28219 -1.252,2.24889 l 0.79748,2.80073 3.50092,-0.99686 -0.79749,-2.80073 c -0.27558,-0.96652 -1.2822,-1.52693 -2.24891,-1.25203 z"
   stroke-linecap="round"
   id="path90" />
</g>
<g
   transform="translate(250.66,374.39)"
   id="EO1SC4cFyXSMsRWdaMkAK">
<path
   style="opacity:1;fill:#2f2e41;fill-rule:nonzero;stroke:none;stroke-width:1;stroke-linecap:butt;stroke-linejoin:miter;stroke-miterlimit:4;stroke-dasharray:none;stroke-dashoffset:0"
   vector-effect="non-scaling-stroke"
   transform="translate(-369.25,-569.64)"
   d="m 368.391,567.15331 c -0.9665,0.27559 -1.52689,1.28219 -1.252,2.24889 l 0.79748,2.80073 3.50092,-0.99686 -0.79749,-2.80073 c -0.27558,-0.96652 -1.2822,-1.52693 -2.24891,-1.25203 z"
   stroke-linecap="round"
   id="path93" />
</g>
<g
   transform="translate(287.14,370.81)"
   id="xalRmi3vkfL3mnnfTpJUU">
<path
   style="opacity:1;fill:#2f2e41;fill-rule:nonzero;stroke:none;stroke-width:1;stroke-linecap:butt;stroke-linejoin:miter;stroke-miterlimit:4;stroke-dasharray:none;stroke-dashoffset:0"
   vector-effect="non-scaling-stroke"
   transform="translate(-405.73,-566.06)"
   d="m 404.86955,563.57 c -0.9665,0.2756 -1.52689,1.28219 -1.252,2.24889 l 0.79749,2.80073 3.50091,-0.99686 -0.79748,-2.80073 c -0.27558,-0.96652 -1.2822,-1.52693 -2.24892,-1.25203 z"
   stroke-linecap="round"
   id="path96" />
</g>
<g
   transform="translate(257.66,372.4)"
   id="ShAfNlQkyCSQb3Hmn4Mv7">
<path
   style="opacity:1;fill:#2f2e41;fill-rule:nonzero;stroke:none;stroke-width:1;stroke-linecap:butt;stroke-linejoin:miter;stroke-miterlimit:4;stroke-dasharray:none;stroke-dashoffset:0"
   vector-effect="non-scaling-stroke"
   transform="translate(-376.26,-567.65)"
   d="m 375.3928,565.1596 c -0.9665,0.27559 -1.52689,1.28218 -1.252,2.24888 l 0.79748,2.80074 3.50092,-0.99686 -0.79749,-2.80073 c -0.27558,-0.96652 -1.2822,-1.52693 -2.24891,-1.25203 z"
   stroke-linecap="round"
   id="path99" />
</g>
<g
   transform="translate(280.14,372.8)"
   id="oaMV2v7jhCpLtklszQW6E">
<path
   style="opacity:1;fill:#2f2e41;fill-rule:nonzero;stroke:none;stroke-width:1;stroke-linecap:butt;stroke-linejoin:miter;stroke-miterlimit:4;stroke-dasharray:none;stroke-dashoffset:0"
   vector-effect="non-scaling-stroke"
   transform="translate(-398.73,-568.05)"
   d="m 397.86772,565.56369 c -0.96649,0.27559 -1.52688,1.28218 -1.252,2.24888 l 0.79749,2.80073 3.50091,-0.99685 -0.79748,-2.80074 c -0.27559,-0.96652 -1.28221,-1.52692 -2.24892,-1.25202 z"
   stroke-linecap="round"
   id="path102" />
</g>
<g
   transform="translate(264.67,370.41)"
   id="hs9AwQsy6d6wCv3uH8szo">
<path
   style="opacity:1;fill:#2f2e41;fill-rule:nonzero;stroke:none;stroke-width:1;stroke-linecap:butt;stroke-linejoin:miter;stroke-miterlimit:4;stroke-dasharray:none;stroke-dashoffset:0"
   vector-effect="non-scaling-stroke"
   transform="translate(-383.26,-565.66)"
   d="m 382.39463,563.16588 c -0.9665,0.27559 -1.52689,1.28219 -1.252,2.24889 l 0.79748,2.80073 3.50092,-0.99686 -0.79749,-2.80073 c -0.27558,-0.96652 -1.2822,-1.52693 -2.24891,-1.25203 z"
   stroke-linecap="round"
   id="path105" />
</g>
<g
   transform="translate(273.14,374.8)"
   id="CL_ckfQ6pYjKU-WfAFb-P">
<path
   style="opacity:1;fill:#2f2e41;fill-rule:nonzero;stroke:none;stroke-width:1;stroke-linecap:butt;stroke-linejoin:miter;stroke-miterlimit:4;stroke-dasharray:none;stroke-dashoffset:0"
   vector-effect="non-scaling-stroke"
   transform="translate(-391.73,-570.05)"
   d="m 390.86589,567.5574 c -0.9665,0.2756 -1.52689,1.28219 -1.252,2.24889 l 0.79749,2.80073 3.50091,-0.99686 -0.79748,-2.80073 c -0.27558,-0.96652 -1.2822,-1.52693 -2.24892,-1.25203 z"
   stroke-linecap="round"
   id="path108" />
</g>
<g
   transform="translate(271.67,368.41)"
   id="C5AcGDgDZTiKuO0tHdI6y">
<path
   style="opacity:1;fill:#2f2e41;fill-rule:nonzero;stroke:none;stroke-width:1;stroke-linecap:butt;stroke-linejoin:miter;stroke-miterlimit:4;stroke-dasharray:none;stroke-dashoffset:0"
   vector-effect="non-scaling-stroke"
   transform="translate(-390.26,-563.66)"
   d="m 389.39646,561.17217 c -0.9665,0.27559 -1.52689,1.28219 -1.252,2.24889 l 0.79748,2.80073 3.50092,-0.99686 -0.79749,-2.80073 c -0.27558,-0.96652 -1.2822,-1.52693 -2.24891,-1.25203 z"
   stroke-linecap="round"
   id="path111" />
</g>
<g
   transform="translate(266.14,376.79)"
   id="VoW8NDVhvY4T4ADtPPZN7">
<path
   style="opacity:1;fill:#2f2e41;fill-rule:nonzero;stroke:none;stroke-width:1;stroke-linecap:butt;stroke-linejoin:miter;stroke-miterlimit:4;stroke-dasharray:none;stroke-dashoffset:0"
   vector-effect="non-scaling-stroke"
   transform="translate(-384.73,-572.04)"
   d="m 383.86406,569.55112 c -0.96652,0.27557 -1.52694,1.28217 -1.25206,2.24888 l 0.79749,2.80073 3.50091,-0.99685 -0.79748,-2.80074 c -0.27559,-0.96649 -1.28217,-1.52688 -2.24886,-1.25202 z"
   stroke-linecap="round"
   id="path114" />
</g>
<g
   transform="translate(278.67,366.42)"
   id="YZ95gPV77Emty4a3EpNwn">
<path
   style="opacity:1;fill:#2f2e41;fill-rule:nonzero;stroke:none;stroke-width:1;stroke-linecap:butt;stroke-linejoin:miter;stroke-miterlimit:4;stroke-dasharray:none;stroke-dashoffset:0"
   vector-effect="non-scaling-stroke"
   transform="translate(-397.26,-561.67)"
   d="m 396.39828,559.17846 c -0.9665,0.27559 -1.52689,1.28218 -1.252,2.24888 l 0.79748,2.80073 3.50092,-0.99685 -0.79749,-2.80074 c -0.27558,-0.96652 -1.2822,-1.52692 -2.24891,-1.25202 z"
   stroke-linecap="round"
   id="path117" />
</g>
<g
   transform="translate(259.13,378.78)"
   id="ilWgcLpVZNnCN24HLb79Y">
<path
   style="opacity:1;fill:#2f2e41;fill-rule:nonzero;stroke:none;stroke-width:1;stroke-linecap:butt;stroke-linejoin:miter;stroke-miterlimit:4;stroke-dasharray:none;stroke-dashoffset:0"
   vector-effect="non-scaling-stroke"
   transform="translate(-377.72,-574.03)"
   d="m 376.86223,571.54483 c -0.9665,0.2756 -1.52689,1.28219 -1.252,2.24889 l 0.79749,2.80073 3.50091,-0.99686 -0.79748,-2.80073 c -0.27558,-0.96652 -1.2822,-1.52693 -2.24892,-1.25203 z"
   stroke-linecap="round"
   id="path120" />
</g>
<g
   transform="translate(285.67,364.42)"
   id="nQtYjr32jDk0q_6jXV0od">
<path
   style="opacity:1;fill:#2f2e41;fill-rule:nonzero;stroke:none;stroke-width:1;stroke-linecap:butt;stroke-linejoin:miter;stroke-miterlimit:4;stroke-dasharray:none;stroke-dashoffset:0"
   vector-effect="non-scaling-stroke"
   transform="translate(-404.26,-559.67)"
   d="m 403.40011,557.18474 c -0.9665,0.27559 -1.52689,1.28219 -1.252,2.24889 l 0.79748,2.80073 3.50092,-0.99686 -0.79749,-2.80073 c -0.27558,-0.96652 -1.2822,-1.52693 -2.24891,-1.25203 z"
   stroke-linecap="round"
   id="path123" />
</g>
<g
   transform="translate(252.13,380.78)"
   id="XA9SpI9QpaHEwr3CMh22y">
<path
   style="opacity:1;fill:#2f2e41;fill-rule:nonzero;stroke:none;stroke-width:1;stroke-linecap:butt;stroke-linejoin:miter;stroke-miterlimit:4;stroke-dasharray:none;stroke-dashoffset:0"
   vector-effect="non-scaling-stroke"
   transform="translate(-370.72,-576.03)"
   d="m 369.8604,573.53854 c -0.96649,0.2756 -1.52688,1.28219 -1.252,2.24889 l 0.79749,2.80073 3.50091,-0.99685 -0.79748,-2.80074 c -0.27559,-0.96652 -1.2822,-1.52693 -2.24892,-1.25203 z"
   stroke-linecap="round"
   id="path126" />
</g>
<g
   transform="translate(245.13,382.77)"
   id="5kq7JPwlTCV-vj60KTqQK">
<path
   style="opacity:1;fill:#2f2e41;fill-rule:nonzero;stroke:none;stroke-width:1;stroke-linecap:butt;stroke-linejoin:miter;stroke-miterlimit:4;stroke-dasharray:none;stroke-dashoffset:0"
   vector-effect="non-scaling-stroke"
   transform="translate(-363.72,-578.02)"
   d="m 362.85857,575.53226 c -0.9665,0.2756 -1.52689,1.28219 -1.252,2.24889 l 0.79749,2.80073 3.50091,-0.99686 -0.79748,-2.80073 c -0.27558,-0.96652 -1.2822,-1.52693 -2.24892,-1.25203 z"
   stroke-linecap="round"
   id="path129" />
</g>
</svg>
